<svg width="24" height="24" viewBox="0 0 24 24" fill="none" xmlns="http://www.w3.org/2000/svg">
<path d="M3.00284 13.6719C3.00393 15.3049 3.6529 16.8709 4.80731 18.026C5.96172 19.1811 7.52726 19.831 9.16034 19.8331H20.2461C20.445 19.8331 20.6358 19.7541 20.7764 19.6134C20.9171 19.4728 20.9961 19.282 20.9961 19.0831C20.9961 18.8842 20.9171 18.6934 20.7764 18.5528C20.6358 18.4121 20.445 18.3331 20.2461 18.3331H9.16034C7.93189 18.3221 6.7575 17.8263 5.89272 16.9538C5.02794 16.0812 4.54277 14.9024 4.54277 13.6739C4.54277 12.4454 5.02794 11.2666 5.89272 10.394C6.7575 9.52148 7.93189 9.02575 9.16034 9.01473H18.1528L15.6985 11.0326C15.6219 11.095 15.5584 11.1719 15.5116 11.2589C15.4649 11.3459 15.4357 11.4412 15.4259 11.5395C15.4161 11.6378 15.4258 11.737 15.4544 11.8315C15.4831 11.9261 15.5301 12.014 15.5928 12.0903C15.6555 12.1666 15.7327 12.2297 15.8199 12.2761C15.9071 12.3225 16.0026 12.3513 16.1009 12.3606C16.1992 12.37 16.2984 12.3599 16.3928 12.3309C16.4872 12.3018 16.5749 12.2544 16.651 12.1914L20.7223 8.84373C20.7313 8.83623 20.7381 8.82723 20.7467 8.81935C20.7662 8.80164 20.7848 8.78286 20.8022 8.7631L20.8082 8.75748C20.8135 8.75148 20.8202 8.74698 20.8255 8.74098V8.73873C20.8333 8.72935 20.839 8.71848 20.8461 8.70873C20.8608 8.68913 20.8745 8.66872 20.887 8.6476C20.89 8.64273 20.8941 8.63823 20.8967 8.63298C20.8993 8.62773 20.9061 8.6206 20.9095 8.61385C20.9128 8.6071 20.9173 8.5936 20.9218 8.58385C20.9318 8.56202 20.9408 8.53974 20.9488 8.5171L20.9515 8.51035C20.9669 8.46749 20.9779 8.42312 20.9841 8.37798C20.9863 8.3641 20.9908 8.35098 20.992 8.3371C20.9931 8.32323 20.992 8.31048 20.992 8.29735C20.992 8.28423 20.9953 8.27598 20.9953 8.26473C20.9953 8.25348 20.9923 8.24298 20.992 8.23173V8.19235C20.992 8.17923 20.9863 8.16498 20.9841 8.1511C20.9779 8.10595 20.967 8.06158 20.9515 8.01873L20.9488 8.01198C20.9406 7.9891 20.932 7.96698 20.9218 7.94523C20.9173 7.93548 20.9147 7.92498 20.9095 7.91523C20.9042 7.90548 20.9005 7.90285 20.8967 7.8961C20.893 7.88935 20.89 7.88635 20.887 7.88148C20.8747 7.86038 20.8613 7.83997 20.8468 7.82035C20.8397 7.8106 20.8341 7.79973 20.8262 7.79035V7.78848C20.8187 7.7791 20.8093 7.77273 20.8015 7.76373C20.7842 7.74498 20.7666 7.72623 20.7475 7.70973C20.7388 7.70185 20.7321 7.69285 20.7231 7.68535L20.7193 7.68198L16.6495 4.33773C16.5734 4.27468 16.4857 4.22727 16.3913 4.19822C16.2969 4.16917 16.1977 4.15905 16.0994 4.16844C16.0011 4.17783 15.9056 4.20654 15.8184 4.25294C15.7312 4.29933 15.654 4.36249 15.5913 4.43878C15.5286 4.51508 15.4816 4.60301 15.4529 4.69753C15.4243 4.79205 15.4146 4.8913 15.4244 4.98958C15.4342 5.08785 15.4634 5.18322 15.5101 5.27021C15.5569 5.3572 15.6204 5.43409 15.697 5.49648L18.1513 7.51473H9.15884C7.52664 7.51691 5.96194 8.16634 4.80791 9.32059C3.65387 10.4748 3.00473 12.0397 3.00284 13.6719Z" fill="#222222"/>
</svg>
