<svg width="122" height="96" viewBox="0 0 122 96" fill="none" xmlns="http://www.w3.org/2000/svg">
<path d="M21.561 26.1618C28.2771 13.8133 45.1842 -0.594624 68.3819 5.4081C91.5796 11.4108 107.251 24.1051 104.683 46.1999C102.116 68.2947 88.619 86.6543 59.5507 87.1885C30.4824 87.7227 6.81404 53.2289 21.561 26.1618Z" fill="#0D5A50"/>
<path opacity="0.7" d="M21.561 26.1618C28.2771 13.8133 45.1842 -0.594624 68.3819 5.4081C91.5796 11.4108 107.251 24.1051 104.683 46.1999C102.116 68.2947 88.619 86.6543 59.5507 87.1885C30.4824 87.7227 6.81404 53.2289 21.561 26.1618Z" fill="white"/>
<path d="M89.7266 31.4152H54.1113V54.2958H89.7266V31.4152Z" fill="#0D5A50"/>
<path opacity="0.4" d="M89.7266 31.4152H54.1113V54.2958H89.7266V31.4152Z" fill="white"/>
<path d="M89.7295 31.4152H87.6777V54.2958H89.7295V31.4152Z" fill="#0D5A50"/>
<path d="M101.287 58.6664H54.1113V81.4543H101.287V58.6664Z" fill="#0D5A50"/>
<path opacity="0.4" d="M101.287 58.6664H54.1113V81.4543H101.287V58.6664Z" fill="white"/>
<path d="M83.2943 63.7821H76.209V70.3851H83.2943V63.7821Z" fill="#0DB38B"/>
<path d="M83.2943 63.7821V64.7029L76.8643 64.7071V70.3865H76.209V63.7821H83.2943Z" fill="#E6E6E6"/>
<path opacity="0.2" d="M76.8652 70.3865L80.6813 64.7043L83.2953 64.7029V65.715L79.8682 70.3865H76.8652Z" fill="white"/>
<path opacity="0.2" d="M81.3926 70.3865L83.295 67.679V69.1635L82.3438 70.3865H81.3926Z" fill="white"/>
<path opacity="0.2" d="M76.8652 64.7071V66.4531L78.1025 64.7029L76.8652 64.7071Z" fill="white"/>
<path d="M93.9232 63.7821H86.8379V70.3851H93.9232V63.7821Z" fill="#0DB38B"/>
<path d="M93.9232 63.7821V64.7029L87.4946 64.7071V70.3865H86.8379V63.7821H93.9232Z" fill="#E6E6E6"/>
<path opacity="0.2" d="M87.4941 70.3865L91.3088 64.7043L93.9228 64.7029V65.715L90.4971 70.3865H87.4941Z" fill="white"/>
<path opacity="0.2" d="M92.0195 70.3865L93.9219 67.679V69.1635L92.9707 70.3865H92.0195Z" fill="white"/>
<path opacity="0.2" d="M87.4941 64.7071V66.4531L88.7314 64.7029L87.4941 64.7071Z" fill="white"/>
<path d="M103.897 54.2944H54.1113V56.1543H103.897V54.2944Z" fill="#0D5A50"/>
<path opacity="0.2" d="M103.897 54.2944H54.1113V56.1543H103.897V54.2944Z" fill="white"/>
<path d="M102.592 56.1557H54.1113V58.7606H102.592V56.1557Z" fill="#0D5A50"/>
<path opacity="0.2" d="M102.592 56.1557H54.1113V58.7606H102.592V56.1557Z" fill="black"/>
<path d="M70.1479 66.7581H61.5703V81.4543H70.1479V66.7581Z" fill="#0DB38B"/>
<path d="M70.1479 66.7581V67.5018H62.4229V81.4543H61.5703V66.7581H70.1479Z" fill="#E6E6E6"/>
<path opacity="0.2" d="M67.3785 67.5018L62.4238 72.8031V74.7445L68.8975 67.5018H67.3785Z" fill="white"/>
<path opacity="0.2" d="M70.1489 68.4058L62.4238 76.378V81.4543H63.7033L70.1489 74.5842V68.4058Z" fill="white"/>
<path opacity="0.2" d="M65.8594 81.4543L70.1475 77.0556V78.2913L67.1784 81.4543H65.8594Z" fill="white"/>
<path d="M69.4037 73.8743H68.6188C68.576 73.7762 68.5007 73.6958 68.4055 73.6466C68.3103 73.5974 68.201 73.5825 68.096 73.6043C67.9911 73.626 67.8968 73.6832 67.8292 73.7662C67.7615 73.8492 67.7246 73.9529 67.7246 74.0598C67.7246 74.1668 67.7615 74.2705 67.8292 74.3535C67.8968 74.4364 67.9911 74.4936 68.096 74.5154C68.201 74.5372 68.3103 74.5222 68.4055 74.4731C68.5007 74.4239 68.576 74.3435 68.6188 74.2454H69.4037V73.8743Z" fill="#E6E6E6"/>
<path d="M99.6103 75.5008H76.1152V81.4529H99.6103V75.5008Z" fill="#E6E6E6"/>
<path opacity="0.2" d="M80.0307 75.5008H77.793V81.4529H80.0307V75.5008Z" fill="white"/>
<path opacity="0.2" d="M83.9467 75.5008H81.709V81.4529H83.9467V75.5008Z" fill="white"/>
<path opacity="0.2" d="M88.0483 75.5008H85.8105V81.4529H88.0483V75.5008Z" fill="white"/>
<path opacity="0.2" d="M91.7788 75.5008H89.541V81.4529H91.7788V75.5008Z" fill="white"/>
<path opacity="0.2" d="M95.8803 75.5008H93.6426V81.4529H95.8803V75.5008Z" fill="white"/>
<path opacity="0.2" d="M99.6103 75.5008H97.5586V81.4529H99.6103V75.5008Z" fill="white"/>
<path d="M90.8467 28.9958V31.4152H55.4625L50.5586 28.9958H90.8467Z" fill="#0D5A50"/>
<path opacity="0.2" d="M90.8467 28.9958V31.4152H55.4625L50.5586 28.9958H90.8467Z" fill="black"/>
<path d="M91.6865 27.136V29.09H50.4769L46.7891 27.136H91.6865Z" fill="#0D5A50"/>
<path opacity="0.2" d="M91.6865 27.136V29.09H50.4769L46.7891 27.136H91.6865Z" fill="white"/>
<path d="M82.455 36.0656H61.0117V49.0874H82.455V36.0656Z" fill="#0DB38B"/>
<path d="M82.4564 36.0656V38.111H62.504V49.086H61.0117V36.0656H82.4564Z" fill="#E6E6E6"/>
<path opacity="0.2" d="M67.6051 38.111L62.5039 45.3002V48.2228L69.2369 38.111H67.6051Z" fill="white"/>
<path opacity="0.2" d="M64.4082 49.086L71.9205 38.111H77.9418L70.4296 49.086H64.4082Z" fill="white"/>
<path opacity="0.2" d="M72.8789 49.086L80.2841 38.111H82.4556L74.9025 48.9932L72.8789 49.086Z" fill="white"/>
<path d="M38.729 26.2995L22.3164 34.3336V81.4543H54.8583V34.2647L38.729 26.2995Z" fill="#0D5A50"/>
<path opacity="0.3" d="M38.729 26.2995L22.3164 34.3336V81.4543H54.8583V34.2647L38.729 26.2995Z" fill="white"/>
<path d="M102.594 81.4543H20.1758V84.6173H102.594V81.4543Z" fill="#0D5A50"/>
<path opacity="0.2" d="M102.594 81.4543H20.1758V84.6173H102.594V81.4543Z" fill="black"/>
<path opacity="0.2" d="M22.3164 34.3336V36.4887L38.5866 28.1762L54.8583 36.4887V34.2647L38.729 26.2995L22.3164 34.3336Z" fill="black"/>
<path d="M41.6199 38.5763C41.6199 38.9794 41.5402 39.3786 41.3856 39.751C41.2309 40.1234 41.0042 40.4618 40.7184 40.7468C40.4325 41.0318 40.0933 41.2578 39.7199 41.4119C39.3465 41.5661 38.9463 41.6453 38.5422 41.6451C38.3837 41.645 38.2254 41.6328 38.0688 41.6086C37.6134 41.539 37.1798 41.3674 36.8005 41.1067C36.73 41.0575 36.6596 41.0055 36.5919 40.9507C35.9847 40.4495 35.5935 39.735 35.4988 38.9546C35.4042 38.1741 35.6134 37.3871 36.0834 36.756C36.5533 36.1249 37.2481 35.6978 38.0245 35.5628C38.8008 35.4278 39.5995 35.5952 40.2558 36.0304C40.3164 36.0712 40.3741 36.1119 40.4291 36.1569C40.7978 36.4437 41.0961 36.8105 41.3014 37.2294C41.5068 37.6484 41.6137 38.1085 41.6142 38.5749L41.6199 38.5763Z" fill="#0DB38B"/>
<path d="M40.4348 36.1583C40.1679 36.0666 39.8921 36.0029 39.6119 35.9685C37.6165 35.731 35.9776 37.4727 36.2214 39.4619C36.2844 39.9702 36.4084 40.4691 36.5906 40.9479C35.954 40.4393 35.5459 39.6993 35.4562 38.8906C35.3665 38.0819 35.6024 37.2707 36.1122 36.6356C36.622 36.0005 37.3638 35.5934 38.1744 35.5039C38.9851 35.4144 39.7982 35.6498 40.4348 36.1583Z" fill="#E6E6E6"/>
<path opacity="0.2" d="M41.1016 36.8739L38.069 41.6114C37.6137 41.5418 37.1801 41.3703 36.8008 41.1095L40.2617 36.0346C40.3223 36.0754 40.3801 36.1161 40.435 36.1611C40.6942 36.3614 40.9193 36.602 41.1016 36.8739Z" fill="white"/>
<path d="M36.3966 46.2969H26.3281V55.5976H36.3966V46.2969Z" fill="#0DB38B"/>
<path d="M36.398 46.2955V47.593L27.261 47.5986V55.5976H26.3281V46.2955H36.398Z" fill="#E6E6E6"/>
<path opacity="0.2" d="M27.2617 55.5976L32.6828 47.5958L36.3988 47.5944V49.0185L31.5287 55.5976H27.2617Z" fill="white"/>
<path opacity="0.2" d="M33.6953 55.5976L36.3995 51.7837V53.8769L35.0467 55.5976H33.6953Z" fill="white"/>
<path opacity="0.2" d="M27.2617 47.5986V50.0588L29.0204 47.5944L27.2617 47.5986Z" fill="white"/>
<path d="M50.381 46.2969H40.3125V55.5976H50.381V46.2969Z" fill="#0DB38B"/>
<path d="M50.3824 46.2955V47.593L41.2454 47.5986V55.5976H40.3125V46.2955H50.3824Z" fill="#E6E6E6"/>
<path opacity="0.2" d="M41.2461 55.5976L46.6672 47.5958L50.3831 47.5944V49.0185L45.513 55.5976H41.2461Z" fill="white"/>
<path opacity="0.2" d="M47.6797 55.5976L50.3825 51.7837V53.8769L49.0311 55.5976H47.6797Z" fill="white"/>
<path opacity="0.2" d="M41.2461 47.5986V50.0588L43.0047 47.5944L41.2461 47.5986Z" fill="white"/>
<path d="M46.4694 63.224H30.6191V81.2673H46.4694V63.224Z" fill="#0DB38B"/>
<path d="M46.468 63.224V64.3388H31.831V81.2673H30.6191V63.224H46.468Z" fill="#E6E6E6"/>
<path opacity="0.2" d="M31.8301 73.1264L39.9441 64.3388H37.9797L31.8301 71.0486V73.1264Z" fill="white"/>
<path opacity="0.2" d="M41.9916 64.3388L31.8301 75.2056V81.2673H33.6944L46.4671 67.0703V64.3388H41.9916Z" fill="white"/>
<path opacity="0.2" d="M36.1348 81.2673L46.4668 70.3359V72.2463L37.682 81.2673H36.1348Z" fill="white"/>
<path d="M59.7997 33.5534L59.2121 34.9381L58.6949 36.1583L38.7299 26.2995L18.5915 36.1583L17.2852 33.5534L38.5424 23.0704L46.7889 27.136L50.1821 28.8103L50.5584 28.9958L55.4623 31.4152L59.7997 33.5534Z" fill="#0D5A50"/>
<path opacity="0.2" d="M59.2123 34.9381L58.6952 36.1583L38.7301 26.2995L18.5917 36.1583L17.959 34.8973L38.5427 24.7433L59.2123 34.9381Z" fill="black"/>
<path d="M48.5169 60.806H28.752V63.224H48.5169V60.806Z" fill="#0D5A50"/>
<path d="M66.7387 37.5585H66.5527V49.0817H66.7387V37.5585Z" fill="#E6E6E6"/>
<path d="M71.5454 37.6555H71.3594V49.1788H71.5454V37.6555Z" fill="#E6E6E6"/>
<path d="M76.395 37.4601H76.209V48.9833H76.395V37.4601Z" fill="#E6E6E6"/>
<path d="M101.29 58.5737H99.2383V81.4543H101.29V58.5737Z" fill="#0D5A50"/>
<path d="M104.831 83.8723H18.3105V87.2208H104.831V83.8723Z" fill="#0D5A50"/>
<mask id="mask0_69_1718" style="mask-type:luminance" maskUnits="userSpaceOnUse" x="19" y="3" width="79" height="93">
<path d="M21.2679 32.3641C21.2679 32.3641 15.503 47.2149 23.6043 62.1669C31.7056 77.1189 48.3901 85.0236 61.7448 91.7784C75.0995 98.5332 88.9671 95.2437 95.5563 84.1801C102.146 73.1166 93.1086 65.2188 93.0959 49.4417C93.0832 33.6645 95.4633 29.4865 86.8956 16.1582C78.3279 2.82988 57.3144 -0.122284 41.4288 9.76464C25.5433 19.6516 21.2679 32.3641 21.2679 32.3641Z" fill="white"/>
</mask>
<g mask="url(#mask0_69_1718)">
<path d="M96.1494 26.6299V34.0946C96.1494 34.0946 79.0618 39.7642 75.6065 41.4441C72.1513 43.124 68.4367 46.6104 68.4367 46.6104C67.1952 47.8925 62.6338 48.9524 62.8564 47.7659C62.9292 47.3362 62.9387 46.8981 62.8846 46.4656C62.8409 46.0653 62.7579 45.6702 62.6366 45.2861C62.2364 46.0354 61.3514 46.8817 61.3514 46.8817C61.3514 47.7645 60.8188 49.2237 60.8188 49.2237L60.6201 52.0494C61.5276 53.6843 60.7272 54.345 60.3833 54.2986C60.0395 54.2523 59.6491 53.6562 59.6491 53.6562L59.1348 53.7251C59.1348 53.7251 58.5148 55.0044 58.0258 55.0507C57.5368 55.0971 57.2662 54.3886 57.2662 54.3886C57.2662 54.3886 57.0084 54.8736 56.3897 54.5882C56.2302 54.4876 56.1058 54.3403 56.0332 54.1665C55.6471 53.3947 55.4329 51.8652 55.3709 51.3085C55.2821 50.6056 55.1934 47.333 55.1934 46.9351C55.1934 46.5373 57.4086 43.1395 58.0723 41.9881C58.736 40.8368 59.2236 39.4268 60.1071 38.9418C60.9907 38.4568 61.9672 38.8518 64.8447 38.6761C67.7223 38.5004 70.1996 37.9254 71.5045 37.439C72.8093 36.9526 73.1236 36.2919 75.0274 35.842C76.9312 35.3922 96.0169 26.6763 96.1494 26.6299Z" fill="#F9B499"/>
<path d="M63.2481 45.0134C63.1646 45.5047 63.043 45.9888 62.8846 46.4614C62.8409 46.0611 62.7578 45.666 62.6366 45.2819C62.2364 46.0326 61.3514 46.8789 61.3514 46.8789C61.3514 47.7603 60.8187 49.2195 60.8187 49.2195L60.62 52.0452C61.5275 53.6801 60.7271 54.3408 60.3833 54.2944C60.0395 54.2481 59.6491 53.652 59.6491 53.652L59.1348 53.7209C59.1348 53.7209 58.5147 55.0002 58.0258 55.0465C57.5368 55.0929 57.2662 54.3844 57.2662 54.3844C57.2662 54.3844 57.0083 54.8694 56.3897 54.584C56.2299 54.4837 56.1053 54.3364 56.0332 54.1623C56.2559 54.2621 56.5236 54.1623 56.766 53.5114C56.9289 53.0717 56.9902 52.601 56.9453 52.1344C56.9004 51.6678 56.7505 51.2173 56.5067 50.8165C56.5067 50.8165 57.4269 48.8484 57.3888 48.3775C57.3508 47.9065 56.8407 47.4454 57.0281 47.1221C57.2155 46.7988 57.6707 47.3766 58.0286 47.0096C58.3865 46.6427 59.7083 44.579 59.6533 44.3457C59.5984 44.1123 59.9873 44.1264 60.1902 43.9464C60.3932 43.7665 60.3453 42.8949 60.613 43.0017C60.8057 43.0809 60.9938 43.1705 61.1767 43.2702C61.2048 43.0716 61.2048 42.87 61.1767 42.6714C61.1259 42.5716 62.1419 43.609 62.4379 43.6554C62.7338 43.7018 63.3623 43.9577 63.2481 45.0134Z" fill="#F7A48B"/>
<path d="M57.2713 54.4786C57.2614 54.4799 57.2515 54.4799 57.2417 54.4786C57.2211 54.4707 57.2045 54.4551 57.1953 54.4352C57.186 54.4152 57.185 54.3925 57.1923 54.3717C57.1994 54.3521 57.904 52.4036 57.1994 51.2172C57.1928 51.2048 57.1894 51.1911 57.1894 51.1771C57.1894 51.1631 57.1928 51.1494 57.1994 51.137C57.3487 50.8526 57.456 50.5482 57.5179 50.2331C57.6461 49.5682 57.8434 48.2074 57.7884 48.019C57.7081 47.7463 57.9603 47.4567 57.9716 47.444C58.2794 47.1453 58.5552 46.8156 58.7946 46.46C59.2173 45.8428 59.8148 44.6844 59.8204 44.6718C59.8253 44.6619 59.8323 44.6532 59.8408 44.6462C59.8493 44.6392 59.8591 44.634 59.8698 44.631C59.8698 44.631 60.2925 44.4904 60.7928 43.8944C60.8035 43.8817 60.8177 43.8725 60.8336 43.8677C60.8576 43.8607 61.4353 43.6948 61.7623 43.8677C61.7752 43.8809 61.7834 43.8979 61.7857 43.9162C61.788 43.9345 61.7842 43.953 61.7749 43.9689C61.7657 43.9849 61.7514 43.9974 61.7344 44.0045C61.7173 44.0116 61.6984 44.0129 61.6805 44.0083C61.472 43.8916 61.0704 43.9633 60.9041 44.0083C60.4517 44.5411 60.0684 44.7196 59.9543 44.7646C59.6437 45.373 59.3027 45.9656 58.9327 46.5401C58.6872 46.9057 58.4038 47.2445 58.0872 47.5509C58.035 47.6113 57.8969 47.8123 57.9462 47.9656C58.0252 48.2341 57.7588 49.8479 57.6799 50.257C57.6187 50.5728 57.5134 50.8785 57.3671 51.1651C58.0717 52.4163 57.3812 54.3394 57.3502 54.4224C57.3446 54.4388 57.3339 54.453 57.3198 54.4631C57.3056 54.4732 57.2887 54.4786 57.2713 54.4786Z" fill="#F29079"/>
<path d="M62.7808 45.8414C62.7706 45.8435 62.7601 45.8435 62.7498 45.8414C62.7396 45.8374 62.7303 45.8314 62.7225 45.8237C62.7146 45.8161 62.7083 45.807 62.704 45.7969C62.6997 45.7869 62.6974 45.7761 62.6973 45.7651C62.6972 45.7542 62.6992 45.7433 62.7033 45.7332C62.9852 45.0373 62.7033 44.1109 62.7033 44.1024C62.6971 44.0814 62.6994 44.0587 62.7097 44.0393C62.7199 44.0199 62.7374 44.0052 62.7583 43.9984C62.7687 43.995 62.7798 43.9936 62.7908 43.9945C62.8017 43.9954 62.8124 43.9985 62.8221 44.0037C62.8319 44.0088 62.8405 44.0158 62.8474 44.0243C62.8544 44.0329 62.8595 44.0427 62.8626 44.0532C62.8753 44.0926 63.167 45.0443 62.8626 45.795C62.8549 45.8098 62.8431 45.8221 62.8286 45.8303C62.8141 45.8386 62.7975 45.8424 62.7808 45.8414Z" fill="#F29079"/>
<path d="M62.6364 45.3691C62.6164 45.369 62.5972 45.362 62.5819 45.3491C62.5667 45.3362 62.5566 45.3184 62.5532 45.2988C62.5208 45.1076 62.3926 44.5734 62.1925 44.3977C62.1759 44.3832 62.1657 44.3626 62.1642 44.3406C62.1628 44.3186 62.1702 44.2969 62.1847 44.2803C62.1993 44.2637 62.2199 44.2536 62.242 44.2521C62.264 44.2507 62.2858 44.258 62.3024 44.2726C62.5842 44.5228 62.7125 45.2412 62.7181 45.2721C62.7214 45.2937 62.7162 45.3157 62.7036 45.3335C62.691 45.3513 62.6719 45.3636 62.6505 45.3677L62.6364 45.3691Z" fill="#F29079"/>
<path d="M61.4018 45.414C60.3548 45.414 59.8517 44.7828 59.8264 44.7519C59.8127 44.7346 59.8065 44.7125 59.8092 44.6907C59.8118 44.6688 59.8231 44.6488 59.8405 44.6352C59.8578 44.6216 59.8799 44.6155 59.9019 44.6181C59.9238 44.6207 59.9438 44.6319 59.9574 44.6493C59.9828 44.6816 60.5887 45.4323 61.8781 45.2032C61.8889 45.2011 61.9001 45.2013 61.9109 45.2036C61.9216 45.2059 61.9318 45.2103 61.9409 45.2166C61.9499 45.2229 61.9576 45.2309 61.9636 45.2402C61.9695 45.2494 61.9735 45.2598 61.9753 45.2706C61.9787 45.2924 61.9735 45.3146 61.9609 45.3326C61.9484 45.3507 61.9293 45.3632 61.9077 45.3676C61.7408 45.398 61.5715 45.4136 61.4018 45.414Z" fill="#F29079"/>
<path d="M59.4874 48.9749H59.4733C59.4625 48.9732 59.4522 48.9694 59.4429 48.9636C59.4336 48.9579 59.4256 48.9503 59.4193 48.9414C59.4129 48.9325 59.4085 48.9224 59.4062 48.9117C59.4038 48.9011 59.4037 48.89 59.4057 48.8793L59.6058 47.7547C59.6084 47.7384 59.6158 47.7233 59.6269 47.7111C59.951 47.3793 60.805 45.743 60.8135 45.7233C60.8185 45.7136 60.8254 45.705 60.8339 45.6979C60.8423 45.6909 60.852 45.6856 60.8625 45.6823C60.873 45.679 60.884 45.6779 60.8949 45.6789C60.9059 45.6799 60.9165 45.683 60.9262 45.6882C60.9359 45.6931 60.9445 45.6999 60.9516 45.7081C60.9586 45.7164 60.9639 45.726 60.9672 45.7363C60.9705 45.7467 60.9717 45.7576 60.9707 45.7684C60.9697 45.7792 60.9665 45.7897 60.9614 45.7992C60.9262 45.8667 60.1159 47.4229 59.765 47.8081L59.5692 48.9088C59.5653 48.9276 59.555 48.9444 59.5401 48.9564C59.5252 48.9684 59.5066 48.975 59.4874 48.9749Z" fill="#F29079"/>
<path d="M58.7281 47.967C58.5334 47.9662 58.3411 47.9236 58.1644 47.8419C58.1446 47.8322 58.1294 47.8151 58.122 47.7944C58.1147 47.7736 58.1157 47.7508 58.125 47.7308C58.1295 47.7209 58.136 47.7121 58.144 47.7048C58.152 47.6974 58.1614 47.6918 58.1716 47.6881C58.1819 47.6844 58.1927 47.6828 58.2036 47.6834C58.2145 47.684 58.2251 47.6867 58.2349 47.6914C58.3897 47.7621 58.5579 47.7987 58.7281 47.7987C58.8983 47.7987 59.0665 47.7621 59.2213 47.6914C59.2312 47.6868 59.2419 47.6842 59.2528 47.6837C59.2638 47.6832 59.2747 47.6849 59.2849 47.6886C59.2952 47.6923 59.3046 47.698 59.3127 47.7054C59.3208 47.7128 59.3273 47.7216 59.3319 47.7315C59.3366 47.7414 59.3392 47.7521 59.3397 47.763C59.3402 47.7739 59.3385 47.7847 59.3348 47.795C59.331 47.8052 59.3253 47.8146 59.3179 47.8227C59.3106 47.8307 59.3017 47.8373 59.2918 47.8419C59.1151 47.9236 58.9228 47.9662 58.7281 47.967Z" fill="#F29079"/>
<path d="M60.4966 47.4314C60.4478 47.4316 60.3995 47.4206 60.3557 47.3991C60.346 47.3941 60.3373 47.3872 60.3303 47.3789C60.3232 47.3706 60.3179 47.361 60.3145 47.3506C60.3112 47.3402 60.3099 47.3293 60.3108 47.3184C60.3117 47.3076 60.3148 47.297 60.3198 47.2873C60.3248 47.2776 60.3316 47.269 60.3399 47.2619C60.3483 47.2549 60.3579 47.2496 60.3683 47.2462C60.3787 47.2429 60.3897 47.2416 60.4006 47.2425C60.4115 47.2434 60.4221 47.2465 60.4318 47.2514C60.5967 47.3372 61.0405 47.0476 61.3027 46.8143C61.3194 46.8018 61.3401 46.796 61.3609 46.7982C61.3816 46.8003 61.4008 46.8101 61.4147 46.8257C61.4285 46.8412 61.436 46.8614 61.4356 46.8822C61.4352 46.903 61.427 46.9229 61.4126 46.938C61.2984 47.0307 60.832 47.4314 60.4966 47.4314Z" fill="#F29079"/>
<path d="M60.8546 44.0293C60.8336 44.0297 60.8133 44.0221 60.7978 44.008C60.7824 43.9938 60.7729 43.9743 60.7715 43.9534C60.7439 43.6169 60.5868 43.3041 60.3332 43.0804C60.3254 43.0728 60.3192 43.0638 60.315 43.0537C60.3108 43.0437 60.3086 43.033 60.3086 43.0221C60.3086 43.0112 60.3108 43.0005 60.315 42.9904C60.3192 42.9804 60.3254 42.9713 60.3332 42.9637C60.3476 42.9472 60.368 42.937 60.39 42.9355C60.4119 42.9339 60.4335 42.941 60.4502 42.9553C60.7358 43.2075 60.9125 43.5601 60.9434 43.9394C60.9454 43.9612 60.9386 43.9828 60.9246 43.9997C60.9106 44.0165 60.8905 44.0272 60.8687 44.0293H60.8546Z" fill="#F29079"/>
<path d="M61.8844 43.7201C61.8624 43.7197 61.8413 43.7112 61.8252 43.6962C61.504 43.3756 60.9135 42.4858 60.9797 42.3157C60.987 42.296 61.0015 42.2797 61.0203 42.2703C61.0391 42.2608 61.0609 42.2589 61.0811 42.2647C61.1013 42.2706 61.1185 42.284 61.1293 42.302C61.14 42.3201 61.1435 42.3415 61.139 42.3621C61.1545 42.483 61.5815 43.2168 61.9436 43.5781C61.9591 43.5938 61.9678 43.615 61.9678 43.6371C61.9678 43.6592 61.9591 43.6804 61.9436 43.6962C61.9275 43.7112 61.9064 43.7197 61.8844 43.7201Z" fill="#F29079"/>
<path d="M57.6771 47.6211C57.433 47.6206 57.1942 47.5499 56.9894 47.4173C56.9707 47.4052 56.9576 47.3862 56.953 47.3644C56.9484 47.3427 56.9526 47.32 56.9647 47.3013C56.9769 47.2827 56.996 47.2696 57.0178 47.265C57.0396 47.2604 57.0623 47.2646 57.081 47.2767C57.2167 47.3653 57.3705 47.4225 57.5311 47.4441C57.6918 47.4658 57.8553 47.4513 58.0096 47.4018C58.0308 47.3951 58.0537 47.3971 58.0734 47.4072C58.0931 47.4174 58.1079 47.4349 58.1146 47.456C58.1214 47.477 58.1194 47.4999 58.1092 47.5195C58.0991 47.5392 58.0815 47.554 58.0604 47.5607C57.9364 47.6002 57.8072 47.6206 57.6771 47.6211Z" fill="#F29079"/>
<path d="M56.8412 51.1454C56.7975 51.1454 56.7694 51.1454 56.7637 51.1454C56.742 51.1433 56.722 51.1329 56.7079 51.1164C56.6937 51.0999 56.6864 51.0786 56.6876 51.0569C56.6882 51.0459 56.6909 51.0352 56.6957 51.0253C56.7005 51.0154 56.7072 51.0066 56.7155 50.9994C56.7238 50.9921 56.7335 50.9867 56.7439 50.9833C56.7544 50.9799 56.7654 50.9786 56.7764 50.9796C56.9173 50.9894 57.2865 50.9796 57.3513 50.7827C57.3549 50.7724 57.3604 50.7629 57.3676 50.7546C57.3748 50.7464 57.3836 50.7397 57.3934 50.7349C57.4032 50.7301 57.4139 50.7272 57.4248 50.7265C57.4357 50.7258 57.4467 50.7272 57.457 50.7307C57.4674 50.7342 57.477 50.7397 57.4852 50.7469C57.4934 50.7541 57.5001 50.7629 57.505 50.7727C57.5098 50.7825 57.5127 50.7931 57.5134 50.804C57.5141 50.8149 57.5127 50.8258 57.5092 50.8362C57.4148 51.1145 57.0131 51.1454 56.8412 51.1454Z" fill="#F29079"/>
<path d="M58.2697 56.8946C59.1366 56.8112 59.7534 55.8552 59.6474 54.7594C59.5414 53.6635 58.7528 52.8428 57.886 52.9262C57.0191 53.0096 56.4023 53.9656 56.5083 55.0615C56.6142 56.1573 57.4029 56.978 58.2697 56.8946Z" stroke="#263238" stroke-linecap="round" stroke-linejoin="round"/>
<path d="M58.2954 56.8052C58.1551 56.4955 57.926 56.2343 57.6369 56.0544C57.3479 55.8746 57.012 55.7842 56.6715 55.7948C56.331 55.8053 56.0013 55.9162 55.724 56.1136C55.4467 56.3109 55.2343 56.5858 55.1135 56.9036L53.9706 59.9232C53.8231 60.3463 53.847 60.8102 54.0371 61.216C54.2273 61.6219 54.5687 61.9376 54.9887 62.0961C55.4087 62.2546 55.8742 62.2433 56.286 62.0645C56.6977 61.8858 57.0233 61.5538 57.1934 61.1392L58.3391 58.121C58.419 57.9096 58.4563 57.6845 58.4488 57.4587C58.4413 57.2329 58.3892 57.0108 58.2954 56.8052ZM56.9989 56.7883C56.9452 56.7677 56.8987 56.7316 56.8655 56.6846C56.8322 56.6377 56.8137 56.582 56.8121 56.5245C56.8106 56.4671 56.8262 56.4104 56.8568 56.3618C56.8875 56.3131 56.9319 56.2746 56.9845 56.2511C57.0371 56.2277 57.0955 56.2202 57.1523 56.2298C57.2091 56.2394 57.2618 56.2655 57.3038 56.3049C57.3457 56.3443 57.375 56.3953 57.388 56.4513C57.4009 56.5073 57.397 56.5658 57.3766 56.6196C57.3488 56.6919 57.2935 56.7502 57.2227 56.7818C57.1519 56.8134 57.0715 56.8157 56.9989 56.7883Z" fill="#0D5A50"/>
<path d="M57.872 57.9453L56.7277 60.9635C56.6067 61.2584 56.3751 61.4944 56.0823 61.6216C55.7894 61.7487 55.4584 61.7568 55.1597 61.6441C54.8609 61.5315 54.6181 61.307 54.4827 61.0184C54.3474 60.7298 54.3303 60.3999 54.435 60.099L55.5792 57.0751C55.6781 56.8108 55.8679 56.5901 56.1147 56.4523C56.1719 56.6065 56.2589 56.748 56.3708 56.8686C56.4828 56.9892 56.6175 57.0866 56.7672 57.1553C56.9169 57.224 57.0787 57.2625 57.2434 57.2688C57.408 57.2751 57.5723 57.2489 57.7268 57.1918C57.7819 57.1709 57.8355 57.1465 57.8875 57.1187C57.9786 57.3877 57.9731 57.6799 57.872 57.9453Z" fill="white"/>
<path d="M56.4446 60.3829C56.3838 60.3806 56.3242 60.3653 56.2699 60.3379L56.0529 60.2564C55.9246 60.2072 55.8528 60.2325 55.8232 60.3309L55.795 60.4068L56.3587 60.6205L56.2755 60.8356L54.8945 60.3084L55.0214 59.9808C55.0289 59.9425 55.044 59.906 55.0658 59.8735C55.0876 59.841 55.1155 59.8131 55.1482 59.7914C55.1808 59.7697 55.2173 59.7546 55.2558 59.7471C55.2943 59.7396 55.3338 59.7397 55.3722 59.7475C55.4033 59.7545 55.4332 59.7659 55.461 59.7812L55.5695 59.8234C55.6275 59.8373 55.6799 59.8684 55.7199 59.9125C55.7599 59.9567 55.7856 60.0118 55.7936 60.0708C55.8795 59.978 55.9937 59.9822 56.1388 60.0357L56.3516 60.1186C56.4072 60.1444 56.4678 60.1579 56.5292 60.158L56.4446 60.3829ZM55.1764 60.1692L55.5991 60.3309L55.6315 60.2465C55.6639 60.165 55.6456 60.1059 55.5357 60.061L55.3948 60.009C55.2976 59.971 55.2412 59.9893 55.2116 60.0652L55.1764 60.1692Z" fill="#0D5A50"/>
<path d="M55.8604 59.524L55.9718 59.2273L56.1719 59.3033L56.0577 59.5999L56.4579 59.7531L56.5988 59.3806L56.7989 59.4551L56.5735 60.0525L55.1953 59.5282L55.4194 58.9293L55.6195 59.0052L55.4786 59.3792L55.8604 59.524Z" fill="#0D5A50"/>
<path d="M55.927 58.7438L56.9275 59.1233L56.8542 59.3229L55.4746 58.7972L55.5775 58.5259L56.4878 58.6215L55.6606 58.3094L55.7353 58.1097L57.1135 58.6341L57.0289 58.8576L55.927 58.7438Z" fill="#0D5A50"/>
<path d="M55.7695 58.0197L56.0232 57.3506L56.2233 57.4251L56.1373 57.6514L57.3196 58.1013L57.2365 58.3164L56.0542 57.8679L55.9682 58.0928L55.7695 58.0197Z" fill="#0D5A50"/>
<path d="M58.1537 56.1234L55.8201 57.2157C55.7231 57.258 55.6468 57.3369 55.608 57.4352C55.5691 57.5334 55.5709 57.6431 55.613 57.74L55.6214 57.7555L57.0531 60.8173C57.0741 60.8654 57.1044 60.9089 57.1422 60.9454C57.1801 60.9818 57.2248 61.0104 57.2737 61.0296C57.3227 61.0488 57.3749 61.0582 57.4275 61.0572C57.4801 61.0562 57.532 61.0449 57.5802 61.024H57.5957L58.2763 60.7063L60.717 65.9217C60.7322 65.9558 60.754 65.9865 60.7813 66.0121C60.8085 66.0377 60.8406 66.0576 60.8756 66.0706C60.9106 66.0837 60.9479 66.0897 60.9852 66.0883C61.0226 66.0869 61.0593 66.078 61.0932 66.0623L61.5596 65.8458C61.594 65.8307 61.6249 65.8088 61.6507 65.7815C61.6764 65.7543 61.6965 65.7221 61.7096 65.687C61.7227 65.6519 61.7287 65.6146 61.7271 65.5771C61.7256 65.5397 61.7165 65.503 61.7006 65.4691L59.2599 60.2536L59.9419 59.9373C60.0391 59.8947 60.1154 59.8155 60.1542 59.717C60.193 59.6185 60.1912 59.5087 60.1491 59.4115C60.147 59.4062 60.1446 59.4011 60.142 59.3961L58.7089 56.3314C58.6673 56.2342 58.5888 56.1574 58.4905 56.1179C58.3922 56.0784 58.2822 56.0793 58.1847 56.1206L58.1537 56.1234ZM58.5539 56.7714C58.5732 56.8121 58.5843 56.8561 58.5865 56.9009C58.5888 56.9458 58.5821 56.9907 58.5669 57.033C58.5517 57.0753 58.5283 57.1142 58.498 57.1475C58.4678 57.1808 58.4312 57.2078 58.3904 57.2269L58.3172 57.2607C58.2765 57.2798 58.2324 57.2906 58.1875 57.2926C58.1426 57.2946 58.0977 57.2877 58.0555 57.2723C58.0133 57.2569 57.9746 57.2332 57.9416 57.2028C57.9086 57.1723 57.8821 57.1356 57.8634 57.0948L57.8296 57.0231C57.791 56.9412 57.7866 56.8475 57.8172 56.7623C57.8479 56.6772 57.9111 56.6077 57.993 56.569L58.0663 56.5339C58.1489 56.4961 58.2432 56.4925 58.3285 56.5238C58.4138 56.5551 58.4832 56.6189 58.5215 56.7012L58.5539 56.7714Z" fill="#BFBFBF"/>
<g opacity="0.2">
<path d="M61.1421 65.6504C61.1264 65.6503 61.1111 65.6457 61.0979 65.6373C61.0847 65.6288 61.0741 65.6168 61.0675 65.6026L58.6719 60.4743C58.6641 60.4539 58.6641 60.4314 58.6719 60.411C58.6757 60.4008 58.6816 60.3914 58.6891 60.3835C58.6966 60.3755 58.7056 60.3691 58.7156 60.3646L58.965 60.2479C58.9852 60.2388 59.0082 60.238 59.029 60.2456C59.0498 60.2532 59.0668 60.2687 59.0763 60.2887C59.081 60.2985 59.0837 60.3092 59.0842 60.3201C59.0846 60.331 59.0829 60.3419 59.0791 60.3521C59.0753 60.3624 59.0695 60.3717 59.062 60.3797C59.0545 60.3876 59.0454 60.394 59.0354 60.3984L58.8607 60.4799L61.2253 65.5323C61.2344 65.5523 61.2352 65.575 61.2275 65.5955C61.2199 65.6161 61.2044 65.6328 61.1844 65.642C61.1714 65.6488 61.1568 65.6517 61.1421 65.6504Z" fill="black"/>
</g>
<path d="M59.6432 54.764C59.7489 55.8605 59.1303 56.8164 58.2637 56.898" stroke="#263238" stroke-linecap="round" stroke-linejoin="round"/>
<path d="M96.1505 28.352V36.9723L95.4727 37.148C92.2048 37.9915 78.2964 41.5959 77.1648 42.0247C75.8797 42.5097 74.5973 43.2604 74.1633 43.349C73.7293 43.4375 71.4182 46.0425 70.7094 46.706C70.0006 47.3695 68.2758 48.1118 66.2818 48.6404C64.2878 49.1689 62.4263 50.586 61.9444 51.0302C61.4625 51.4744 58.9781 54.8258 58.4018 54.5629C57.9494 54.3535 57.3012 54.2284 57.2871 53.2752C57.2908 52.9494 57.3382 52.6256 57.428 52.3123C57.9142 50.4552 58.9781 48.9988 59.9955 48.646C61.0129 48.2931 63.448 45.1568 63.5368 44.3597L96.1505 28.352Z" fill="#F9B499"/>
<path d="M95.4668 37.141C92.199 37.9845 78.2905 41.5889 77.1575 42.0177C75.8738 42.5027 74.5915 43.2534 74.1574 43.3419C73.7234 43.4305 71.4124 46.0354 70.7036 46.699C69.9948 47.3625 68.2685 48.1118 66.276 48.6404C64.2834 49.1689 62.4261 50.586 61.9385 51.0302C61.451 51.4744 58.9723 54.8258 58.3959 54.5629C57.9436 54.3535 57.2953 54.2284 57.2812 53.2752C57.5631 53.7293 58.0239 54.2593 58.2071 54.0569C58.2071 54.0569 57.6688 54.0161 58.2071 52.7129C58.7454 51.4098 59.0075 50.7786 59.6684 51.2523C60.3293 51.7261 61.0987 51.8849 61.3594 50.9374C61.6201 49.9899 61.7215 50.4243 62.9193 49.6328C64.1171 48.8414 65.384 47.5171 65.7377 47.5495C66.0914 47.5818 68.8646 47.3203 69.6946 46.8789C70.5246 46.4375 72.8962 43.7777 72.9582 43.013C73.0202 42.2482 75.9767 41.1447 76.7151 40.7117C77.4535 40.2787 80.3409 39.7276 81.4485 39.4887C82.5561 39.2497 79.7871 40.2632 78.9556 40.841C78.1242 41.4188 85.9592 38.8561 88.0166 38.461C90.0331 38.073 95.2597 37.1761 95.4668 37.141Z" fill="#F7A48B"/>
<path d="M67.7804 68.8908C66.6996 69.9732 63.4303 71.5154 62.2593 72.3448C61.4321 72.931 57.9796 73.4694 56.9763 73.7506C56.2633 73.96 55.3135 74.774 54.3637 74.5041C53.4139 74.2342 45.4986 70.4427 43.5991 69.4966C41.6995 68.5506 31.8847 70.0365 26.0296 69.8439C25.6477 69.8326 25.2813 69.82 24.9305 69.813C19.8913 69.6724 17.9551 69.8439 17.9551 69.8439L20.6452 59.4663C20.6452 59.4663 25.6393 59.7053 33.2417 61.0479C34.7763 61.3192 36.1671 61.5371 37.4114 61.7156C42.3322 62.4185 44.9533 62.4635 44.9533 62.4635C44.9533 62.4635 47.4898 60.2676 49.8614 62.1542C52.2331 64.0408 52.863 65.6265 52.863 65.6265L56.1872 67.5229C56.1872 67.5229 57.5343 67.2853 58.3643 67.5229C59.1943 67.7605 60.3654 66.9704 60.9657 66.6555C62.0254 66.1213 63.1695 65.7732 64.3477 65.6265C64.3477 65.6265 66.3952 64.8393 67.8988 65.2273C67.8988 65.2273 69.0078 64.7549 69.9576 64.7549C70.2036 64.7521 70.4473 64.8025 70.672 64.9025C70.9278 65.0131 71.1465 65.1946 71.3019 65.4255C71.3726 65.6988 71.4257 65.9763 71.4611 66.2563C71.54 66.82 70.1943 66.4728 67.7804 68.8908Z" fill="#F9B499"/>
<path d="M67.7796 68.8907C66.6988 69.9732 63.4295 71.5153 62.2585 72.3448C61.4313 72.931 57.9789 73.4694 56.9755 73.7506C56.2625 73.96 55.3127 74.774 54.363 74.5041C53.4132 74.2341 45.4979 70.4427 43.5983 69.4966C41.6988 68.5505 31.8839 70.0365 26.0288 69.8439C25.647 69.8326 25.2806 69.82 24.9297 69.8129C27.4662 69.647 30.1323 69.4531 30.9539 69.3195C32.6449 69.0383 41.0661 68.6082 42.2357 68.5084C43.4053 68.4085 52.6395 73.2009 53.6964 73.6746C54.7533 74.1484 55.4973 74.2018 56.1836 73.6746C56.8699 73.1475 59.6065 72.6793 59.6065 72.6793L58.0352 72.8199C58.0352 72.8199 60.125 72.065 61.4821 71.7304C62.8391 71.3959 64.1863 70.1714 65.0825 69.8874C65.9787 69.6035 67.5358 67.8294 68.3236 67.4653C69.1113 67.1012 68.3236 66.0159 68.3236 66.0159C68.3236 66.0159 69.2705 65.9793 69.6425 66.5642C69.6425 66.5642 71.0263 66.6105 71.311 65.4325C71.3811 65.7058 71.4338 65.9833 71.4688 66.2633C71.5393 66.82 70.1935 66.4728 67.7796 68.8907Z" fill="#F7A48B"/>
<path d="M70.673 64.9138C68.3859 65.5126 67.8997 65.8978 67.8997 65.8978C67.484 65.7741 64.7812 67.4751 64.5516 67.6129C64.3219 67.7506 64.1852 68.41 64.1852 68.41C64.1852 68.41 63.4087 67.6129 62.0926 68.528C60.7764 69.4432 60.6313 70.0083 60.6313 70.0083L60.1028 69.335C60.1028 69.335 57.8693 69.5346 57.1858 69.4235C56.6241 69.3514 56.0903 69.1365 55.6358 68.7994C55.1144 68.4521 52.3369 67.2867 52.0508 67.2024C51.7648 67.118 51.4026 66.5881 51.4026 66.5881C50.8967 64.5609 48.3729 62.2456 47.0018 62.4283C46.1746 62.5418 45.3887 62.8587 44.7147 63.3505C44.7147 63.3505 42.1458 63.0876 40.8268 63.0356C39.5078 62.9836 31.4883 61.5089 31.4883 61.5089L37.4068 61.7086C42.329 62.4115 44.9501 62.4564 44.9501 62.4564C44.9501 62.4564 47.4865 60.2606 49.8582 62.1472C52.2298 64.0337 52.8583 65.6195 52.8583 65.6195L56.1839 67.5159C56.1839 67.5159 57.5297 67.2783 58.3611 67.5159C59.1925 67.7535 60.3607 66.9634 60.961 66.6485C62.021 66.1149 63.1649 65.7668 64.343 65.6195C64.343 65.6195 66.3891 64.8322 67.8941 65.2202C67.8941 65.2202 69.0017 64.7479 69.9529 64.7479C70.2021 64.7506 70.4478 64.8072 70.673 64.9138Z" fill="#F7A48B"/>
<path d="M47.0102 68.0627C47.0102 68.0627 47.0242 68.6251 46.7283 68.5702C46.4324 68.5154 47.2582 69.3378 47.7852 69.2071C48.3122 69.0763 49.6058 70.26 50.1075 70.7872C50.6092 71.3143 54.9748 71.9975 55.909 71.9708C56.8433 71.9441 57.5479 70.9868 56.8955 70.0168C56.8955 70.0168 56.7757 70.9713 56.1909 70.8603C56.1909 70.8603 56.7545 70.6494 55.909 69.8622C55.0635 69.0749 53.8305 68.7431 53.5712 68.8936C53.3119 69.044 51.7027 68.3945 51.6083 68.2947C51.5139 68.1949 51.7492 70.5721 50.3513 70.4905C50.3513 70.4905 48.7857 69.3364 48.4729 68.8598C48.16 68.3833 47.0102 68.0627 47.0102 68.0627Z" fill="#F7A48B"/>
<path d="M57.6902 73.0547C57.6716 73.0551 57.6533 73.0491 57.6384 73.0379C57.6235 73.0267 57.6129 73.0108 57.6082 72.9927C57.6035 72.9747 57.6049 72.9556 57.6124 72.9386C57.6199 72.9215 57.6329 72.9074 57.6494 72.8986C58.0989 72.6414 58.8316 72.4924 59.68 72.3195C60.7523 72.1002 61.9699 71.8527 62.7886 71.3228C63.4861 70.8715 64.1498 70.5201 64.7346 70.2122C65.3589 69.8818 65.8972 69.5979 66.2227 69.3153C66.8132 68.8036 68.731 67.5426 69.0411 67.3388C69.0236 67.0148 68.92 66.7014 68.7409 66.4306C68.4675 66.0553 67.6403 65.798 66.8963 66.0314C66.1523 66.2647 63.8934 67.7422 63.8708 67.7591C63.8634 67.7635 63.8553 67.7669 63.8469 67.7689C62.2841 68.1907 60.1943 68.9821 60.1732 68.9906C60.1634 68.9919 60.1534 68.9919 60.1436 68.9906H57.6902C57.6699 68.9879 57.6512 68.978 57.6376 68.9626C57.624 68.9472 57.6166 68.9274 57.6166 68.9069C57.6166 68.8864 57.624 68.8666 57.6376 68.8512C57.6512 68.8358 57.6699 68.8259 57.6902 68.8233H60.1281C60.3155 68.753 62.2897 68.0107 63.7919 67.6073C63.9864 67.4793 66.1128 66.0974 66.8484 65.8683C67.584 65.6391 68.5253 65.8458 68.879 66.3308C69.085 66.6414 69.2002 67.0031 69.2116 67.3753C69.2116 67.3896 69.2082 67.4038 69.2016 67.4165C69.195 67.4293 69.1853 67.4402 69.1735 67.4484C69.151 67.4625 66.9541 68.8978 66.3341 69.4362C65.9944 69.7314 65.4731 70.0069 64.815 70.3542C64.2316 70.662 63.5721 71.0107 62.8816 71.4577C62.0361 72.0046 60.8017 72.2562 59.7138 72.4783C58.9148 72.6414 58.1637 72.7946 57.7339 73.0406C57.7207 73.0488 57.7057 73.0537 57.6902 73.0547Z" fill="#F29079"/>
<path d="M64.1626 67.551C64.1419 67.5509 64.1219 67.5434 64.1062 67.5299C64.0907 67.5142 64.082 67.493 64.082 67.4709C64.082 67.4488 64.0907 67.4276 64.1062 67.4119C65.2772 66.1284 67.77 65.1991 67.8771 65.1626C67.8874 65.1588 67.8983 65.157 67.9093 65.1574C67.9202 65.1578 67.931 65.1604 67.9409 65.165C67.9509 65.1696 67.9598 65.176 67.9673 65.1841C67.9747 65.1921 67.9805 65.2015 67.9842 65.2118C67.9912 65.2325 67.99 65.2551 67.9808 65.275C67.9717 65.2948 67.9552 65.3105 67.9349 65.3186C67.9095 65.3271 65.373 66.2718 64.2302 67.5257C64.2216 67.5348 64.211 67.5417 64.1993 67.5461C64.1876 67.5505 64.175 67.5522 64.1626 67.551Z" fill="#F29079"/>
<path d="M60.1017 68.5927C60.0838 68.5925 60.0664 68.5865 60.0522 68.5756C60.038 68.5647 60.0277 68.5495 60.0228 68.5323C60.0167 68.5112 60.0192 68.4886 60.0298 68.4694C60.0403 68.4501 60.0581 68.4359 60.0792 68.4297C61.4503 68.0388 63.3668 67.5271 63.3865 67.5215C63.4074 67.517 63.4293 67.5207 63.4475 67.5319C63.4658 67.5431 63.479 67.5608 63.4844 67.5815C63.4899 67.6021 63.4871 67.6241 63.4768 67.6428C63.4664 67.6615 63.4492 67.6754 63.4288 67.6818C63.4104 67.6818 61.4954 68.1991 60.1257 68.5899C60.1179 68.5922 60.1098 68.5932 60.1017 68.5927Z" fill="#F29079"/>
<path d="M58.7991 68.3819C58.7819 68.382 58.7651 68.3768 58.7509 68.367C58.7368 68.3572 58.7261 68.3432 58.7202 68.327C58.5314 67.7985 58.7202 67.53 58.7315 67.5187C58.7446 67.5001 58.7645 67.4874 58.787 67.4834C58.8095 67.4795 58.8326 67.4846 58.8513 67.4976C58.87 67.5107 58.8827 67.5306 58.8867 67.553C58.8906 67.5754 58.8855 67.5985 58.8724 67.6171C58.864 67.627 58.7315 67.835 58.8823 68.2708C58.8896 68.2913 58.8885 68.3139 58.8793 68.3336C58.87 68.3533 58.8534 68.3686 58.833 68.3762C58.8223 68.3808 58.8107 68.3827 58.7991 68.3819Z" fill="#F29079"/>
<path d="M55.1801 71.5266C54.6044 71.5104 54.0304 71.4545 53.4624 71.3593L52.9367 71.2862C51.6516 71.1077 50.637 70.9685 49.9775 70.6649C49.5787 70.4821 49.2236 69.9957 48.8797 69.5262C48.6162 69.1663 48.3682 68.8233 48.1526 68.7094C47.6467 68.4367 46.7054 68.0135 46.6955 68.0065C46.6756 67.9973 46.66 67.9807 46.6521 67.9602C46.6442 67.9398 46.6446 67.917 46.6533 67.8969C46.6625 67.8766 46.6794 67.8608 46.7002 67.8529C46.7211 67.845 46.7442 67.8456 46.7646 67.8547C46.773 67.8547 47.7214 68.2849 48.2315 68.5576C48.481 68.6911 48.7402 69.0468 49.015 69.4221C49.3307 69.8537 49.6872 70.3429 50.0479 70.5088C50.6849 70.8012 51.6896 70.9404 52.9607 71.1161L53.4877 71.1892C54.8293 71.3818 56.4991 71.6194 56.7725 70.5243C57.0247 69.5135 55.4873 68.7797 54.3642 68.2427C54.1867 68.1583 54.0176 68.0782 53.8682 68.0023C53.2833 67.694 52.6629 67.458 52.0208 67.2994C52.0073 67.2949 51.9948 67.2877 51.9841 67.2783C51.9841 67.2783 51.4317 66.7582 51.2345 66.5628C51.1147 66.4419 51.0668 66.1495 50.9991 65.6799C50.9677 65.3733 50.9058 65.0705 50.8145 64.776C50.8072 64.7553 50.8082 64.7325 50.8174 64.7126C50.8267 64.6926 50.8433 64.6771 50.8639 64.6692C50.8741 64.6653 50.885 64.6636 50.896 64.664C50.9069 64.6644 50.9177 64.667 50.9277 64.6715C50.9376 64.6761 50.9466 64.6826 50.954 64.6906C50.9614 64.6987 50.9672 64.7081 50.971 64.7184C51.0664 65.0237 51.1311 65.3378 51.164 65.656C51.2119 65.985 51.2655 66.3589 51.3528 66.4447C51.529 66.6204 51.9912 67.0576 52.0828 67.1476C52.7302 67.3123 53.3556 67.5534 53.9457 67.8659C54.0866 67.9404 54.2599 68.0206 54.4361 68.1049C55.6113 68.6672 57.2192 69.4334 56.9345 70.5749C56.7457 71.3214 56.0284 71.5266 55.1801 71.5266Z" fill="#F29079"/>
<path d="M51.4076 66.6851C51.39 66.6847 51.3729 66.6793 51.3583 66.6696C51.3405 66.6564 51.3287 66.6368 51.3252 66.615C51.3218 66.5932 51.3271 66.5709 51.34 66.5529C51.6697 66.1031 51.7247 65.2427 51.7247 65.2343C51.7253 65.2234 51.7281 65.2127 51.7329 65.2029C51.7377 65.1931 51.7443 65.1843 51.7525 65.1771C51.7607 65.1698 51.7702 65.1643 51.7805 65.1607C51.7909 65.1571 51.8018 65.1556 51.8127 65.1563C51.8237 65.1569 51.8343 65.1597 51.8442 65.1645C51.854 65.1692 51.8628 65.1759 51.8701 65.184C51.8773 65.1922 51.8829 65.2017 51.8865 65.212C51.8901 65.2223 51.8916 65.2332 51.8909 65.2441C51.8909 65.2807 51.8332 66.1621 51.4752 66.6499C51.4675 66.6607 51.4574 66.6694 51.4456 66.6755C51.4339 66.6816 51.4209 66.6849 51.4076 66.6851Z" fill="#F29079"/>
<path d="M55.6298 68.4831C55.62 68.4851 55.61 68.4851 55.6002 68.4831C55.5797 68.4752 55.5631 68.4596 55.5541 68.4395C55.5451 68.4195 55.5445 68.3968 55.5523 68.3762C55.681 68.0426 55.8755 67.738 56.1244 67.4808C56.132 67.473 56.1411 67.4668 56.1512 67.4626C56.1612 67.4584 56.172 67.4562 56.1829 67.4562C56.1938 67.4562 56.2046 67.4584 56.2146 67.4626C56.2247 67.4668 56.2337 67.473 56.2414 67.4808C56.2492 67.4885 56.2554 67.4977 56.2597 67.5078C56.2639 67.5179 56.2661 67.5288 56.2661 67.5398C56.2661 67.5508 56.2639 67.5617 56.2597 67.5718C56.2554 67.5819 56.2492 67.5911 56.2414 67.5988C56.0076 67.8413 55.825 68.1281 55.7045 68.4423C55.697 68.4553 55.686 68.466 55.6729 68.4732C55.6597 68.4804 55.6448 68.4838 55.6298 68.4831Z" fill="#F29079"/>
<path d="M47.365 68.7052C47.0507 68.7002 46.7377 68.6639 46.4307 68.5969C46.4106 68.591 46.3934 68.5777 46.3827 68.5597C46.372 68.5416 46.3685 68.5202 46.373 68.4998C46.3775 68.4793 46.3895 68.4613 46.4068 68.4493C46.424 68.4373 46.4451 68.4323 46.4659 68.4353C46.4772 68.4353 47.4988 68.663 47.9329 68.4423C47.9525 68.4322 47.9753 68.4303 47.9963 68.4371C48.0173 68.4438 48.0348 68.4586 48.0449 68.4781C48.055 68.4977 48.0569 68.5205 48.0501 68.5414C48.0434 68.5624 48.0286 68.5798 48.009 68.5899C47.8055 68.6756 47.5856 68.7149 47.365 68.7052Z" fill="#F29079"/>
<path d="M51.7028 66.9747C51.6844 66.9748 51.6666 66.9688 51.652 66.9578C51.6374 66.9467 51.6269 66.9312 51.6221 66.9135C51.6173 66.8959 51.6184 66.8772 51.6253 66.8603C51.6323 66.8434 51.6446 66.8292 51.6605 66.82C51.9012 66.6765 52.0936 66.4645 52.2129 66.2113C52.2226 66.1916 52.2397 66.1764 52.2605 66.169C52.2813 66.1617 52.3042 66.1627 52.3242 66.172C52.3439 66.1814 52.3591 66.1982 52.3665 66.2187C52.3739 66.2392 52.3728 66.2618 52.3637 66.2816C52.2305 66.5655 52.015 66.803 51.745 66.9634C51.7321 66.9706 51.7176 66.9744 51.7028 66.9747Z" fill="#F29079"/>
<path d="M50.6449 70.2178C50.6308 70.2179 50.6168 70.2143 50.6045 70.2074C50.5921 70.2005 50.5818 70.1905 50.5745 70.1785C50.5632 70.1595 50.5597 70.1369 50.5647 70.1155C50.5697 70.094 50.5828 70.0753 50.6012 70.0632C51.4467 69.5473 51.3213 68.5688 51.3157 68.5281C51.3124 68.5065 51.3179 68.4844 51.3308 68.4668C51.3437 68.4492 51.3631 68.4373 51.3847 68.4339C51.4065 68.431 51.4286 68.4368 51.4462 68.4499C51.4639 68.463 51.4757 68.4825 51.4791 68.5042C51.4791 68.5154 51.6356 69.6288 50.6886 70.2052C50.6755 70.2134 50.6604 70.2177 50.6449 70.2178Z" fill="#F29079"/>
</g>
<path d="M46.7259 23.3038V22.4378H57.5948C58.2109 22.4375 58.8015 22.1931 59.237 21.7584C59.6725 21.3237 59.9171 20.7343 59.9171 20.1197V18.011H68.3904C68.6366 18.008 68.8716 17.9078 69.0438 17.7323C69.216 17.5568 69.3115 17.3203 69.3092 17.0748V12.8574C69.3088 12.6119 69.2108 12.3767 69.0367 12.2032C68.8626 12.0298 68.6266 11.9324 68.3806 11.9324H49.998C49.7516 11.9327 49.5154 12.0307 49.3413 12.2046C49.1672 12.3786 49.0694 12.6144 49.0694 12.8602V17.0874C49.0694 17.3334 49.1671 17.5693 49.3412 17.7435C49.5153 17.9177 49.7515 18.0159 49.998 18.0166H58.453V19.757C58.453 20.0795 58.3246 20.3888 58.096 20.6168C57.8674 20.8449 57.5574 20.973 57.2341 20.973H46.7301V20.1099L44.584 21.7012L46.7259 23.3038Z" fill="white"/>
<path d="M66.5724 14.5092L67.5546 14.6526L66.843 15.3428L67.0107 16.3198L66.1314 15.8602L65.2521 16.3198L65.4197 15.3428L64.7109 14.6526L65.6931 14.5092L66.1314 13.6207L66.5724 14.5092Z" fill="#0D5A50"/>
<path d="M63.1032 14.5092L64.0853 14.6526L63.3737 15.3428L63.5428 16.3198L62.6621 15.8602L61.7828 16.3198L61.9519 15.3428L61.2402 14.6526L62.2238 14.5092L62.6621 13.6207L63.1032 14.5092Z" fill="#0D5A50"/>
<path d="M59.6339 14.5092L60.616 14.6526L59.9044 15.3428L60.0721 16.3198L59.1928 15.8602L58.3135 16.3198L58.4812 15.3428L57.7695 14.6526L58.7545 14.5092L59.1928 13.6207L59.6339 14.5092Z" fill="#0D5A50"/>
<path d="M56.1603 14.5092L57.1439 14.6526L56.4337 15.3428L56.6014 16.3198L55.7221 15.8602L54.8414 16.3198L55.0105 15.3428L54.2988 14.6526L55.281 14.5092L55.7221 13.6207L56.1603 14.5092Z" fill="#0D5A50"/>
<path d="M52.691 14.5092L53.6746 14.6526L52.963 15.3428L53.1321 16.3198L52.2514 15.8602L51.3721 16.3198L51.5398 15.3428L50.8281 14.6526L51.8103 14.5092L52.2514 13.6207L52.691 14.5092Z" fill="#0D5A50"/>
</svg>
