<svg width="101" height="102" viewBox="0 0 101 102" fill="none" xmlns="http://www.w3.org/2000/svg">
<rect x="0.5" y="1" width="100" height="100" rx="50" fill="white"/>
<path d="M56.3334 47.6665V42.6665M53.8334 45.1665H58.8334M58.8334 50.9998V55.3332C58.8334 56.7333 58.8334 57.4334 58.5609 57.9681C58.3212 58.4386 57.9388 58.821 57.4684 59.0607C56.9336 59.3332 56.2335 59.3332 54.8334 59.3332H46.1667C44.7666 59.3332 44.0666 59.3332 43.5318 59.0607C43.0614 58.821 42.6789 58.4386 42.4392 57.9681C42.1667 57.4334 42.1667 56.7333 42.1667 55.3332V46.6665C42.1667 45.2664 42.1667 44.5663 42.4392 44.0315C42.6789 43.5611 43.0614 43.1787 43.5318 42.939C44.0666 42.6665 44.7666 42.6665 46.1667 42.6665H50.5001M42.2882 57.6051C42.6792 56.1987 43.9691 55.1665 45.5001 55.1665H51.3334C52.1078 55.1665 52.4951 55.1665 52.817 55.2306C54.1394 55.4936 55.173 56.5272 55.436 57.8495C55.5001 58.1715 55.5001 58.5587 55.5001 59.3332M52.1667 48.9165C52.1667 50.7575 50.6744 52.2498 48.8334 52.2498C46.9925 52.2498 45.5001 50.7575 45.5001 48.9165C45.5001 47.0756 46.9925 45.5832 48.8334 45.5832C50.6744 45.5832 52.1667 47.0756 52.1667 48.9165Z" stroke="#98A2B3" stroke-width="1.66667" stroke-linecap="round" stroke-linejoin="round"/>
<rect x="0.5" y="1" width="100" height="100" rx="50" stroke="#D0D5DD" stroke-linecap="round" stroke-linejoin="round" stroke-dasharray="1 3"/>
</svg>
