<svg width="24" height="24" viewBox="0 0 24 24" fill="none" xmlns="http://www.w3.org/2000/svg">
<path d="M13.7969 4.13599C13.5638 3.89526 13.2847 3.70386 12.9761 3.57314C12.6676 3.44242 12.3359 3.37506 12.0009 3.37506C11.6658 3.37506 11.3341 3.44242 11.0256 3.57314C10.7171 3.70386 10.438 3.89526 10.2049 4.13599L5.40586 9.09199C5.13086 9.37599 4.94586 9.73599 4.87386 10.126C4.29114 13.3041 4.24821 16.5576 4.74686 19.75L4.92286 20.88C4.97886 21.237 5.28686 21.5 5.64786 21.5H9.00086C9.13347 21.5 9.26064 21.4473 9.35441 21.3535C9.44818 21.2598 9.50086 21.1326 9.50086 21V14H14.5009V21C14.5009 21.1326 14.5535 21.2598 14.6473 21.3535C14.7411 21.4473 14.8683 21.5 15.0009 21.5H18.3539C18.5286 21.4999 18.6976 21.4374 18.8304 21.3237C18.9632 21.2101 19.0509 21.0527 19.0779 20.88L19.2549 19.75C19.7535 16.5576 19.7105 13.3041 19.1279 10.126C19.0562 9.73626 18.8707 9.37648 18.5949 9.09199L13.7969 4.13599Z" fill="#5F5F5F"/>
</svg>
