<svg width="101" height="100" viewBox="0 0 101 100" fill="none" xmlns="http://www.w3.org/2000/svg">
<path d="M73.378 39.3556C71.8907 33.805 67.9202 29.1635 62.3399 26.4521C56.7595 23.7407 50.0266 23.1816 43.6221 24.8977C37.2176 26.6137 31.6662 30.4645 28.1892 35.6028C24.7122 40.7411 23.5944 46.746 25.0817 52.2965C27.5424 61.4801 27.0646 68.8066 25.5106 74.3739C23.7395 80.7192 22.8539 83.8918 23.0932 84.5288C23.3669 85.2577 23.5649 85.4577 24.2909 85.739C24.9254 85.9849 27.5911 85.2706 32.9225 83.8421L82.3603 70.5952C87.6917 69.1667 90.3575 68.4524 90.7841 67.9222C91.2721 67.3156 91.3436 67.0434 91.2162 66.2753C91.1048 65.604 88.7516 63.2992 84.0452 58.6897C79.9158 54.6452 75.8387 48.5391 73.378 39.3556Z" fill="#FB552F"/>
<path d="M65.6916 75.0618C67.4784 81.7301 63.5211 88.5844 56.8528 90.3711C50.1845 92.1579 43.3303 88.2006 41.5435 81.5323M9.07046 48.389C7.44757 42.5633 9.13525 36.2648 13.4536 32.031M51.11 23.9204C52.3775 21.64 52.795 18.8838 52.0664 16.1646C50.5775 10.6077 44.8656 7.30995 39.3087 8.79893C33.7517 10.2879 30.454 15.9998 31.943 21.5567C32.6716 24.2758 34.4113 26.4541 36.6492 27.7952M85.1629 28.0002C83.6555 22.1435 79.0447 17.5327 73.188 16.0253M73.378 39.3556C71.8907 33.805 67.9202 29.1635 62.3399 26.4521C56.7595 23.7407 50.0265 23.1816 43.6221 24.8977C37.2176 26.6137 31.6662 30.4645 28.1892 35.6028C24.7122 40.7411 23.5944 46.746 25.0817 52.2965C27.5424 61.4801 27.0646 68.8066 25.5106 74.3739C23.7395 80.7192 22.8539 83.8918 23.0932 84.5288C23.3669 85.2577 23.5649 85.4578 24.2909 85.739C24.9254 85.9849 27.5911 85.2706 32.9225 83.8421L82.3603 70.5952C87.6917 69.1667 90.3575 68.4524 90.7841 67.9222C91.2721 67.3156 91.3436 67.0434 91.2162 66.2753C91.1048 65.604 88.7516 63.2992 84.0452 58.6896C79.9158 54.6452 75.8387 48.5391 73.378 39.3556Z" stroke="#FB552F" stroke-width="4" stroke-linecap="round" stroke-linejoin="round"/>
</svg>
