<svg width="76" height="92" viewBox="0 0 76 92" fill="none" xmlns="http://www.w3.org/2000/svg">
<g clip-path="url(#clip0_69_1843)">
<path d="M66.6911 46.517C68.0165 46.6976 69.335 46.9245 70.6465 47.198V47.4435C69.3433 47.1741 68.0248 46.9502 66.6911 46.7719C64.1609 46.4328 61.6117 46.2612 59.0596 46.2582H58.9735C50.7734 46.2646 42.6707 48.065 35.216 51.5371C33.6711 52.2538 32.1611 53.0374 30.6859 53.8878C25.7957 56.7069 21.3282 60.2238 17.4197 64.3314C14.7775 67.1076 12.4095 70.1405 10.3498 73.3866C10.0886 73.7967 9.83311 74.2108 9.58325 74.629C8.57791 76.3048 7.65654 78.0312 6.82267 79.8016C5.03899 83.5899 3.66965 87.5656 2.73924 91.6575C2.71704 91.7451 2.69745 91.8341 2.67787 91.923C2.67264 91.9482 2.66611 91.9748 2.66089 92L2.40625 91.9416C2.40756 91.9349 2.40886 91.9296 2.41017 91.923C2.42976 91.8341 2.44934 91.7465 2.47024 91.6575C3.42124 87.4656 4.82622 83.3937 6.65943 79.5163V79.5149C7.539 77.6489 8.51496 75.8315 9.58325 74.0701C9.83398 73.656 10.0895 73.245 10.3498 72.837C12.4089 69.6181 14.7701 66.6095 17.4001 63.8535C19.0085 62.1681 20.7148 60.5822 22.51 59.1043L22.5113 59.103C25.0745 56.9944 27.8092 55.1107 30.6859 53.4723C31.9043 52.7768 33.1401 52.1317 34.3933 51.5371C42.1235 47.8566 50.56 45.9626 59.0962 45.9914C61.6364 45.9984 64.1734 46.174 66.6911 46.517Z" fill="#3F3D56"/>
<path d="M39.1905 16.4218C43.1077 16.4218 46.2832 13.194 46.2832 9.21226C46.2832 5.23056 43.1077 2.00275 39.1905 2.00275C35.2732 2.00275 32.0977 5.23056 32.0977 9.21226C32.0977 13.194 35.2732 16.4218 39.1905 16.4218Z" fill="#FF6584"/>
<path d="M8.63321 90.3624C8.85442 91.1935 9.61209 91.7083 9.61209 91.7083C9.61209 91.7083 10.0111 90.8755 9.78992 90.0443C9.56871 89.2131 8.81103 88.6984 8.81103 88.6984C8.81103 88.6984 8.412 89.5312 8.63321 90.3624Z" fill="#3F3D56"/>
<path d="M8.95839 90.1837C9.56538 90.7843 9.63952 91.7076 9.63952 91.7076C9.63952 91.7076 8.72953 91.6571 8.12254 91.0565C7.51555 90.4559 7.44141 89.5326 7.44141 89.5326C7.44141 89.5326 8.3514 89.5831 8.95839 90.1837Z" fill="#0D5A50"/>
<path d="M25.4789 90.3624C25.7001 91.1935 26.4578 91.7083 26.4578 91.7083C26.4578 91.7083 26.8568 90.8755 26.6356 90.0443C26.4144 89.2131 25.6567 88.6984 25.6567 88.6984C25.6567 88.6984 25.2577 89.5312 25.4789 90.3624Z" fill="#3F3D56"/>
<path d="M25.8041 90.1837C26.4111 90.7843 26.4852 91.7076 26.4852 91.7076C26.4852 91.7076 25.5752 91.6571 24.9682 91.0565C24.3613 90.4559 24.2871 89.5326 24.2871 89.5326C24.2871 89.5326 25.1971 89.5831 25.8041 90.1837Z" fill="#0D5A50"/>
<path d="M70.6469 17.4713V26.0546L66.6914 28.7651L60.8804 32.7445L54.4229 37.1685L44.2894 32.0184L31.4855 25.5117L28.8189 24.1565L26.1523 21.9876L34.3858 14.5146L36.7505 12.3686C39.5437 9.83377 43.157 8.43274 46.9015 8.43274H61.7546C62.9224 8.43274 64.0787 8.66653 65.1575 9.12076C66.2364 9.575 67.2167 10.2408 68.0424 11.0801C68.8681 11.9194 69.5231 12.9158 69.97 14.0124C70.4169 15.109 70.6469 16.2844 70.6469 17.4713Z" fill="#0D5A50"/>
<path d="M66.7276 21.9492L70.6478 17.618C77.5022 43.3188 78.0625 68.1653 70.6478 91.9297H65.6737L65.406 91.6576L58.4719 84.6107L54.4473 80.5198L54.553 79.7313L54.9187 77.0196L55.7218 71.0558L56.598 64.5491L57.4742 58.0438L58.3505 51.5371L59.0609 46.2582L59.0974 45.9915L59.2267 45.0305L60.1029 38.5238L60.8812 32.7445L60.9792 32.0184L61.6243 27.2294L61.892 25.241L66.6923 21.9877L66.7276 21.9492Z" fill="#EFEFEF"/>
<path d="M26.151 21.9873H66.6905V91.9302H26.151C21.7246 66.3382 20.6119 42.4514 26.151 21.9873Z" fill="#EFEFEF"/>
<path d="M49.3565 74.8511H41.8887V91.9302H49.3565V74.8511Z" fill="#CCCCCC"/>
<path d="M61.6236 64.5494H30.6855V71.0558H61.6236V64.5494Z" fill="#0D5A50"/>
<path d="M63.9877 80.0951H50.7969V82.8692H63.9877V80.0951Z" fill="#0D5A50"/>
<path d="M40.4819 80.0951H27.291V82.8692H40.4819V80.0951Z" fill="#0D5A50"/>
<path d="M61.6236 51.5368H30.6855V58.0431H61.6236V51.5368Z" fill="#0D5A50"/>
<path d="M61.6236 38.5242H30.6855V45.0305H61.6236V38.5242Z" fill="#0D5A50"/>
<path d="M61.6236 25.5116H30.6855V32.0179H61.6236V25.5116Z" fill="#0D5A50"/>
<path d="M70.647 91.6575H0V91.923H70.647V91.6575Z" fill="#3F3D56"/>
<path d="M10.3511 61.0069H9.58398V91.8085H10.3511V61.0069Z" fill="#3F3D56"/>
<path d="M17.4308 64.9322C17.4796 75.7028 10.0246 84.4692 10.0246 84.4692C10.0246 84.4692 2.49048 75.773 2.44165 65.0025C2.39281 54.2319 9.84778 45.4655 9.84778 45.4655C10.6411 42.6119 19.1295 47.8756 17.4308 64.9322Z" fill="#0D5A50"/>
<path d="M17.4308 64.9322C17.4796 75.7028 10.0246 84.4692 10.0246 84.4692C10.0246 84.4692 2.49048 75.773 2.44165 65.0025C2.39281 54.2319 9.84778 45.4655 9.84778 45.4655C10.6411 42.6119 19.1295 47.8756 17.4308 64.9322Z" fill="#0DB38B"/>
<path d="M0.377395 61.0064H0V91.8089H0.377395V61.0064Z" fill="#3F3D56"/>
<path d="M7.45776 64.9327C16.4478 67.2997 6.7862 72.918 4.98969 76.1886V76.1899C3.77845 78.9983 2.22919 81.6431 0.377395 84.0638C0.169764 84.3292 0.0509304 84.4686 0.0509304 84.4686L0 84.4089V45.6158C1.97835 48.0959 3.62862 50.8287 4.90872 53.7445V53.7458C6.29816 56.9075 3.48832 63.8876 7.45776 64.9327Z" fill="#0DB38B"/>
<path d="M18.4348 37.0916C18.4348 37.0916 13.5561 37.0478 7.51261 37.0756C4.60838 37.0889 1.96401 37.1168 0 37.1433V33.7095C2.11288 32.0649 4.89958 30.7548 7.49171 32.2388C12.5846 35.1563 18.4348 37.0916 18.4348 37.0916Z" fill="#F2F2F2"/>
<path d="M29.4522 5.48465C23.4091 5.51296 18.4902 5.60371 18.4902 5.60371C18.4902 5.60371 24.337 -2.26843 29.4302 0.64814C34.5234 3.56471 40.3742 5.50119 40.3742 5.50119C40.3742 5.50119 35.4952 5.45634 29.4522 5.48465Z" fill="#F2F2F2"/>
<path d="M46.211 8.17789L62.4281 7.37188C64.6648 7.26071 66.8603 8.01141 68.5762 9.474C70.292 10.9366 71.4018 13.0034 71.6838 15.2614L73.651 31.0123L66.7417 21.9571L66.7273 21.9491L46.0516 11.0489L45.6413 10.8327C44.3863 10.1712 44.7989 8.24813 46.211 8.17789Z" fill="#0D5A50"/>
<path d="M54.4545 13.5949H41.2637V16.369H54.4545V13.5949Z" fill="#F2F2F2"/>
<path d="M49.3612 73.0892H43.2236C38.9489 56.127 38.9489 39.4909 43.2236 23.1809H49.3612C53.2683 40.1036 53.4084 56.75 49.3612 73.0892Z" fill="#F2F2F2"/>
</g>
<defs>
<clipPath id="clip0_69_1843">
<rect width="76" height="92" fill="white"/>
</clipPath>
</defs>
</svg>
