<svg width="20" height="20" viewBox="0 0 20 20" fill="none" xmlns="http://www.w3.org/2000/svg">
<path d="M11.9089 14.4083L10.8339 15.4917V10.8333C10.8339 10.6123 10.7461 10.4004 10.5898 10.2441C10.4335 10.0878 10.2215 9.99999 10.0005 9.99999C9.7795 9.99999 9.56754 10.0878 9.41126 10.2441C9.25498 10.4004 9.16719 10.6123 9.16719 10.8333V15.4917L8.09219 14.4083C8.01449 14.3306 7.92225 14.269 7.82073 14.2269C7.71921 14.1849 7.6104 14.1633 7.50052 14.1633C7.39064 14.1633 7.28183 14.1849 7.18031 14.2269C7.07879 14.269 6.98655 14.3306 6.90885 14.4083C6.83115 14.486 6.76952 14.5783 6.72747 14.6798C6.68542 14.7813 6.66378 14.8901 6.66378 15C6.66378 15.1099 6.68542 15.2187 6.72747 15.3202C6.76952 15.4217 6.83115 15.514 6.90885 15.5917L9.40885 18.0917C9.48811 18.1675 9.58156 18.227 9.68385 18.2667C9.7836 18.3107 9.89146 18.3335 10.0005 18.3335C10.1096 18.3335 10.2174 18.3107 10.3172 18.2667C10.4195 18.227 10.5129 18.1675 10.5922 18.0917L13.0922 15.5917C13.2491 15.4347 13.3373 15.2219 13.3373 15C13.3373 14.7781 13.2491 14.5652 13.0922 14.4083C12.9353 14.2514 12.7224 14.1633 12.5005 14.1633C12.2786 14.1633 12.0658 14.2514 11.9089 14.4083ZM15.3505 5.18333C14.8413 4.01333 13.9626 3.04256 12.8489 2.41977C11.7352 1.79697 10.4481 1.55652 9.18466 1.73525C7.92125 1.91398 6.75129 2.50204 5.85406 3.40931C4.95684 4.31657 4.38184 5.49301 4.21719 6.75833C3.42267 6.9486 2.7257 7.42402 2.25863 8.09432C1.79156 8.76461 1.58692 9.5831 1.68357 10.3943C1.78022 11.2056 2.17143 11.9531 2.78291 12.4949C3.39438 13.0367 4.18354 13.335 5.00052 13.3333C5.22153 13.3333 5.43349 13.2455 5.58977 13.0892C5.74605 12.933 5.83385 12.721 5.83385 12.5C5.83385 12.279 5.74605 12.067 5.58977 11.9107C5.43349 11.7545 5.22153 11.6667 5.00052 11.6667C4.55849 11.6667 4.13457 11.4911 3.82201 11.1785C3.50945 10.8659 3.33385 10.442 3.33385 9.99999C3.33385 9.55797 3.50945 9.13404 3.82201 8.82148C4.13457 8.50892 4.55849 8.33333 5.00052 8.33333C5.22153 8.33333 5.43349 8.24553 5.58977 8.08925C5.74605 7.93297 5.83385 7.72101 5.83385 7.49999C5.83598 6.51439 6.18742 5.56145 6.82574 4.81048C7.46406 4.05951 8.34793 3.55912 9.32031 3.39822C10.2927 3.23732 11.2906 3.42633 12.1368 3.93167C12.983 4.437 13.6227 5.22594 13.9422 6.15833C13.9898 6.30153 14.0754 6.4291 14.1899 6.52744C14.3044 6.62577 14.4434 6.69117 14.5922 6.71666C15.1472 6.82155 15.6504 7.11133 16.0197 7.53877C16.389 7.96622 16.6027 8.50613 16.6259 9.07053C16.649 9.63493 16.4804 10.1906 16.1474 10.6469C15.8145 11.1032 15.3368 11.4332 14.7922 11.5833C14.686 11.6107 14.5863 11.6587 14.4987 11.7246C14.4111 11.7905 14.3373 11.873 14.2816 11.9674C14.2259 12.0618 14.1893 12.1663 14.174 12.2748C14.1586 12.3833 14.1648 12.4938 14.1922 12.6C14.2195 12.7061 14.2675 12.8059 14.3334 12.8935C14.3993 12.9811 14.4818 13.0548 14.5763 13.1106C14.6707 13.1663 14.7751 13.2028 14.8837 13.2182C14.9922 13.2335 15.1027 13.2274 15.2089 13.2C16.0858 12.9683 16.8633 12.4567 17.423 11.7429C17.9828 11.0291 18.2944 10.1522 18.3104 9.24522C18.3264 8.33827 18.046 7.45086 17.5118 6.71776C16.9776 5.98466 16.2188 5.44591 15.3505 5.18333Z" fill="white"/>
</svg>
