<svg width="24" height="24" viewBox="0 0 24 24" fill="none" xmlns="http://www.w3.org/2000/svg">
<path d="M19.8998 16.7L18.3998 13.8C18.1998 13.4 18.0998 13 18.0998 12.6V9.2C18.0998 6.7 15.7998 4.6 12.8998 4.4V2.9C12.8998 2.4 12.4998 2 11.9998 2C11.4998 2 11.0998 2.4 11.0998 2.9V4.3C8.19985 4.5 5.89985 6.6 5.89985 9.2V12.7C5.89985 13.1 5.79985 13.5 5.59985 13.9L4.09985 16.6C3.89985 16.9 3.99985 17.2 4.09985 17.5C4.29985 17.8 4.59985 18 4.89985 18H18.9998C19.2998 18 19.5998 17.8 19.7998 17.6C19.9998 17.3 19.9998 16.9 19.8998 16.7ZM6.49985 16.2L7.29985 14.8C7.59985 14.2 7.79985 13.5 7.79985 12.8V9.2C7.79985 7.5 9.49985 6.2 11.5998 6.2H12.4998C14.5998 6.2 16.2998 7.6 16.2998 9.2V12.7C16.2998 13.4 16.4998 14.1 16.7998 14.7L17.5998 16.3H6.49985V16.2ZM14.8998 18.8H13.9998C13.7998 18.8 13.5998 18.9 13.5998 19.1C13.3998 19.8 12.7998 20.4 11.9998 20.4C11.1998 20.4 10.4998 19.9 10.3998 19.1C10.3998 18.9 10.1998 18.8 9.99985 18.8H9.09985C8.79985 18.8 8.59984 19 8.69984 19.3C8.89984 20.8 10.2998 22 11.9998 22C13.6998 22 15.0998 20.8 15.2998 19.3C15.2998 19 15.0998 18.8 14.8998 18.8Z" fill="#0D5A50"/>
</svg>
