<svg width="24" height="24" viewBox="0 0 24 24" fill="none" xmlns="http://www.w3.org/2000/svg">
<g clip-path="url(#clip0_81_2274)">
<path d="M7 3C7.55228 3 8 2.55228 8 2C8 1.44772 7.55228 1 7 1C6.44772 1 6 1.44772 6 2C6 2.55228 6.44772 3 7 3Z" fill="#5F5F5F"/>
<path d="M3 7C3.55228 7 4 6.55228 4 6C4 5.44772 3.55228 5 3 5C2.44772 5 2 5.44772 2 6C2 6.55228 2.44772 7 3 7Z" fill="#5F5F5F"/>
<path d="M12 2C12.5523 2 13 1.55228 13 1C13 0.447715 12.5523 0 12 0C11.4477 0 11 0.447715 11 1C11 1.55228 11.4477 2 12 2Z" fill="#5F5F5F"/>
<path d="M17 3C17.5523 3 18 2.55228 18 2C18 1.44772 17.5523 1 17 1C16.4477 1 16 1.44772 16 2C16 2.55228 16.4477 3 17 3Z" fill="#5F5F5F"/>
<path d="M21 7C21.5523 7 22 6.55228 22 6C22 5.44772 21.5523 5 21 5C20.4477 5 20 5.44772 20 6C20 6.55228 20.4477 7 21 7Z" fill="#5F5F5F"/>
<path d="M17.5 24L17.381 23.971C15.5939 23.4908 14.0086 22.4484 12.8595 20.9979C11.7105 19.5473 11.0585 17.7656 11 15.916V11.698L17.5 9L24 11.698V15.916C23.9415 17.7656 23.2895 19.5473 22.1405 20.9979C20.9914 22.4484 19.4061 23.4908 17.619 23.971L17.5 24ZM13 12.865V16.015C13.0312 17.3546 13.4824 18.6506 14.2898 19.72C15.0972 20.7894 16.2201 21.5781 17.5 21.975C18.7799 21.5781 19.9028 20.7894 20.7102 19.72C21.5176 18.6506 21.9688 17.3546 22 16.015V12.865L17.5 11.072L13 12.865Z" fill="#5F5F5F"/>
<path d="M12 24C12.5523 24 13 23.5523 13 23C13 22.4477 12.5523 22 12 22C11.4477 22 11 22.4477 11 23C11 23.5523 11.4477 24 12 24Z" fill="#5F5F5F"/>
<path d="M10.3992 10.4C10.6112 10.3995 10.8144 10.315 10.9643 10.1651C11.1142 10.0152 11.1987 9.81202 11.1992 9.60001V8H12.7992C13.2051 7.99826 13.5951 7.84235 13.8903 7.56385C14.1855 7.28535 14.3639 6.90506 14.3892 6.5C15.3174 6.91097 16.1268 7.54973 16.7422 8.35701L17.9992 7.833L19.0792 8.283C18.4472 7.07636 17.5175 6.05114 16.3782 5.30455C15.2389 4.55797 13.9278 4.11477 12.5692 4.01698C11.2106 3.91918 9.84949 4.17004 8.61501 4.74576C7.38053 5.32149 6.31357 6.20299 5.51529 7.30669C4.71701 8.41038 4.21388 9.69969 4.0536 11.0524C3.89333 12.405 4.08122 13.7762 4.59946 15.0359C5.1177 16.2956 5.94911 17.402 7.01486 18.2503C8.08061 19.0986 9.34537 19.6606 10.6892 19.883C10.4056 19.1755 10.2075 18.4366 10.0992 17.682C8.72397 17.2301 7.56017 16.2931 6.82505 15.0461C6.08992 13.799 5.8337 12.3271 6.10422 10.905L9.59922 14.4V15.2C9.60107 15.5854 9.74327 15.9569 9.99922 16.245V12H8.79922V10.4H10.3992Z" fill="#5F5F5F"/>
<path d="M3 19C3.55228 19 4 18.5523 4 18C4 17.4477 3.55228 17 3 17C2.44772 17 2 17.4477 2 18C2 18.5523 2.44772 19 3 19Z" fill="#5F5F5F"/>
<path d="M7 23C7.55228 23 8 22.5523 8 22C8 21.4477 7.55228 21 7 21C6.44772 21 6 21.4477 6 22C6 22.5523 6.44772 23 7 23Z" fill="#5F5F5F"/>
<path d="M1 13C1.55228 13 2 12.5523 2 12C2 11.4477 1.55228 11 1 11C0.447715 11 0 11.4477 0 12C0 12.5523 0.447715 13 1 13Z" fill="#5F5F5F"/>
</g>
<defs>
<clipPath id="clip0_81_2274">
<rect width="24" height="24" fill="white"/>
</clipPath>
</defs>
</svg>
