<svg width="24" height="24" viewBox="0 0 24 24" fill="none" xmlns="http://www.w3.org/2000/svg">
<g clip-path="url(#clip0_81_2261)">
<path d="M20.4 0H3.6C1.61177 0 0 1.61177 0 3.6V20.4C0 22.3882 1.61177 24 3.6 24H20.4C22.3882 24 24 22.3882 24 20.4V3.6C24 1.61177 22.3882 0 20.4 0Z" fill="#FFFC00"/>
<path d="M9.51562 19.4062C8.67188 18.7969 8.01562 18.4688 6.42188 18.75C6.1875 18.7969 5.76562 18.9375 5.71875 18.5156C5.625 18.1875 5.625 17.6719 5.39062 17.625C3.9375 17.4375 3.42188 17.1562 3.1875 16.875C3.09375 16.7812 3.04688 16.5469 3.23438 16.5C5.71875 16.0312 6.89062 13.6406 7.125 13.1719C7.40625 12.4688 6.9375 12.0469 6.04688 11.7656C5.625 11.625 4.92188 11.4375 4.92188 10.9688C4.92188 10.7344 5.15625 10.5938 5.39062 10.5C5.57812 10.4531 5.76562 10.4062 5.95312 10.5C6.51562 10.7344 7.03125 10.8281 7.3125 10.5938C7.3125 9.32812 6.98438 7.73438 7.5 6.42188C8.10938 4.96875 9.60938 3.65625 12 3.65625C14.3906 3.65625 15.8906 4.96875 16.5 6.42188C17.0156 7.73438 16.6875 9.32812 16.6875 10.5938C16.9688 10.8281 17.4844 10.7344 18.0469 10.5C18.2344 10.4062 18.4219 10.4531 18.6094 10.5C18.8438 10.5938 19.0781 10.7344 19.0781 10.9688C19.0781 11.4375 18.375 11.625 17.9531 11.7656C17.0625 12.0469 16.5938 12.4688 16.875 13.1719C17.1094 13.6406 18.2812 16.0312 20.7656 16.5C20.9531 16.5469 20.9062 16.7812 20.8125 16.875C20.5781 17.1562 20.0625 17.4375 18.6094 17.625C18.375 17.6719 18.375 18.1875 18.2812 18.5156C18.2344 18.9375 17.8125 18.7969 17.5781 18.75C15.9844 18.4688 15.3281 18.7969 14.4844 19.4062C13.7939 20.004 12.9132 20.3363 12 20.3438C11.0156 20.3906 10.2188 19.9688 9.51562 19.4062Z" fill="white" stroke="black" stroke-width="0.5"/>
</g>
<defs>
<clipPath id="clip0_81_2261">
<rect width="24" height="24" fill="white"/>
</clipPath>
</defs>
</svg>
