<svg width="24" height="24" viewBox="0 0 24 24" fill="none" xmlns="http://www.w3.org/2000/svg">
<g clip-path="url(#clip0_81_2249)">
<path d="M6.34562 0.21814H5.71725C5.19362 0.244321 4.51289 0.270503 4.22489 0.349049C3.75362 0.453776 3.30853 0.584685 2.94198 0.767958C2.52307 0.977412 2.13034 1.26541 1.78998 1.60578C1.44962 1.94614 1.1878 2.31269 0.952162 2.75778C0.768889 3.12432 0.611798 3.56941 0.533253 4.0145C0.480889 4.32869 0.428526 5.00941 0.402344 5.53305V18.2836C0.428526 18.8072 0.454707 19.488 0.533253 19.776C0.63798 20.2472 0.768889 20.6923 0.952162 21.0589C1.16162 21.4778 1.44962 21.8705 1.78998 22.2109C2.13034 22.5512 2.49689 22.813 2.94198 23.0487C3.30853 23.232 3.75362 23.3891 4.19871 23.4676C4.51289 23.52 5.19362 23.5723 5.71725 23.5985H18.4678C18.9914 23.5723 19.6722 23.5461 19.9602 23.4676C20.4314 23.3629 20.8765 23.232 21.2431 23.0487C21.662 22.8392 22.0547 22.5512 22.3951 22.2109C22.7354 21.8705 22.9973 21.504 23.2329 21.0589C23.4162 20.6923 23.5733 20.2472 23.6518 19.8021C23.7042 19.488 23.7565 18.8072 23.7827 18.2836V5.53305C23.7565 5.00941 23.7303 4.32869 23.6518 4.04069C23.5471 3.56941 23.4162 3.12432 23.2329 2.75778C23.0234 2.33887 22.7354 1.94614 22.3951 1.60578C22.0547 1.26541 21.6882 1.00359 21.2431 0.767958C20.8765 0.584685 20.4314 0.427594 19.9863 0.349049C19.6722 0.296685 18.9914 0.244321 18.4678 0.21814H6.34562Z" fill="url(#paint0_linear_81_2249)"/>
<path d="M16.3477 13.152C16.1382 13.0472 15.091 12.5498 14.9077 12.4712C14.7244 12.3927 14.5673 12.3665 14.4364 12.576C14.3055 12.7854 13.8866 13.2567 13.7819 13.3876C13.651 13.5185 13.5462 13.5447 13.3368 13.44C13.1273 13.3352 12.4466 13.1258 11.635 12.4189C11.0066 11.869 10.5877 11.1883 10.4568 10.9789C10.3259 10.7694 10.4568 10.6647 10.5615 10.56C10.6662 10.4552 10.771 10.3243 10.8757 10.1934C10.9804 10.0625 11.0066 9.98395 11.0851 9.85304C11.1637 9.72213 11.1113 9.59123 11.059 9.4865C11.0066 9.38177 10.5877 8.36068 10.4044 7.94177C10.2211 7.54904 10.064 7.60141 9.93314 7.57523H9.54041C9.4095 7.57523 9.17386 7.62759 8.99059 7.83704C8.80732 8.0465 8.2575 8.54395 8.2575 9.56504C8.2575 10.5861 9.01677 11.5549 9.1215 11.712C9.22623 11.8429 10.6139 13.9374 12.7084 14.8276C13.2059 15.037 13.5986 15.168 13.9128 15.2727C14.4102 15.4298 14.8815 15.4036 15.248 15.3512C15.6408 15.2989 16.5048 14.8538 16.6619 14.3825C16.8451 13.9112 16.8451 13.4923 16.7928 13.4138C16.688 13.309 16.5571 13.2567 16.3477 13.152ZM12.3419 18.5454C11.0851 18.5454 9.88077 18.205 8.80732 17.5767L8.5455 17.4196L5.92732 18.1003L6.63423 15.5607L6.47714 15.2989C5.79641 14.1992 5.42986 12.9425 5.42986 11.6334C5.42986 7.83704 8.5455 4.74759 12.368 4.74759C14.1746 4.74759 15.9288 5.4545 17.2379 6.76359C18.547 8.07268 19.2539 9.80068 19.2539 11.6334C19.2539 15.4298 16.1382 18.5454 12.3419 18.5454ZM18.2328 5.76868C16.6619 4.19777 14.5673 3.33377 12.3419 3.33377C7.76004 3.33377 4.01605 7.05159 4.01605 11.6334C4.01605 13.0996 4.40877 14.5134 5.11568 15.7701L3.9375 20.064L8.33605 18.912C9.54041 19.5665 10.928 19.933 12.3157 19.933C16.8975 19.933 20.6415 16.2152 20.6415 11.6334C20.6677 9.43413 19.8037 7.33959 18.2328 5.76868Z" fill="white"/>
</g>
<defs>
<linearGradient id="paint0_linear_81_2249" x1="12.1004" y1="0.223376" x2="12.1004" y2="23.5828" gradientUnits="userSpaceOnUse">
<stop stop-color="#62FA7F"/>
<stop offset="0.686" stop-color="#22CC40"/>
<stop offset="1" stop-color="#05B723"/>
</linearGradient>
<clipPath id="clip0_81_2249">
<rect width="24" height="24" fill="white"/>
</clipPath>
</defs>
</svg>
