<svg width="27" height="24" viewBox="0 0 27 24" fill="none" xmlns="http://www.w3.org/2000/svg">
<rect width="24" height="24" fill="white"/>
<path fill-rule="evenodd" clip-rule="evenodd" d="M26.04 12.2615C26.04 11.446 25.9668 10.6619 25.8309 9.90918H15V14.3576H21.1891C20.9225 15.7951 20.1123 17.013 18.8943 17.8285V20.714H22.6109C24.7855 18.7119 26.04 15.7637 26.04 12.2615Z" fill="#4285F4"/>
<path fill-rule="evenodd" clip-rule="evenodd" d="M14.9995 23.4998C18.1045 23.4998 20.7077 22.47 22.6104 20.7137L18.8938 17.8282C17.864 18.5182 16.5467 18.9259 14.9995 18.9259C12.0042 18.9259 9.46902 16.903 8.5647 14.1848H4.72266V17.1644C6.61493 20.9228 10.504 23.4998 14.9995 23.4998Z" fill="#34A853"/>
<path fill-rule="evenodd" clip-rule="evenodd" d="M8.56523 14.185C8.33523 13.495 8.20455 12.7579 8.20455 12C8.20455 11.242 8.33523 10.505 8.56523 9.81499V6.83545H4.72318C3.94432 8.38795 3.5 10.1443 3.5 12C3.5 13.8557 3.94432 15.612 4.72318 17.1645L8.56523 14.185Z" fill="#FBBC05"/>
<path fill-rule="evenodd" clip-rule="evenodd" d="M14.9995 5.07386C16.6879 5.07386 18.2038 5.65409 19.3956 6.79364L22.694 3.49523C20.7024 1.63955 18.0992 0.5 14.9995 0.5C10.504 0.5 6.61493 3.07705 4.72266 6.83545L8.5647 9.815C9.46902 7.09682 12.0042 5.07386 14.9995 5.07386Z" fill="#EA4335"/>
</svg>
