<svg width="20" height="20" viewBox="0 0 20 20" fill="none" xmlns="http://www.w3.org/2000/svg">
<g clip-path="url(#clip0_69_3036)">
<path d="M9.99935 3.33335C13.6743 3.33335 16.666 6.32502 16.666 10C16.666 13.675 13.6743 16.6667 9.99935 16.6667C6.32435 16.6667 3.33268 13.675 3.33268 10C3.33268 6.32502 6.32435 3.33335 9.99935 3.33335ZM9.99935 1.66669C5.39935 1.66669 1.66602 5.40002 1.66602 10C1.66602 14.6 5.39935 18.3334 9.99935 18.3334C14.5993 18.3334 18.3327 14.6 18.3327 10C18.3327 5.40002 14.5993 1.66669 9.99935 1.66669ZM9.99935 12.5L6.66602 9.16669H13.3327L9.99935 12.5Z" fill="#D5D5D5"/>
</g>
<defs>
<clipPath id="clip0_69_3036">
<rect width="20" height="20" fill="white"/>
</clipPath>
</defs>
</svg>
