<svg width="24" height="24" viewBox="0 0 24 24" fill="none" xmlns="http://www.w3.org/2000/svg">
<g clip-path="url(#clip0_128_1595)">
<path fill-rule="evenodd" clip-rule="evenodd" d="M12.7489 5.24625V5.9955C12.7354 6.66 11.6606 7.03875 11.3209 6.31275C11.2756 6.21303 11.2516 6.10499 11.2504 5.9955V5.24625H9.00336C8.42661 5.2185 8.04036 4.46475 8.43711 4.0065C8.57361 3.849 8.68386 3.7635 9.00336 3.74775C9.75186 3.74775 10.5011 3.7455 11.2504 3.741V2.99925C11.2484 2.91936 11.2611 2.83979 11.2879 2.7645C11.3869 2.46375 11.6831 2.25 12.0146 2.25C12.4144 2.26575 12.7399 2.565 12.7489 2.99925V3.732C14.2466 3.723 15.7451 3.71475 17.2436 3.72225V2.99925C17.2511 2.59875 17.5436 2.26725 17.9779 2.25H18.0071C18.4076 2.26575 18.7331 2.565 18.7414 2.99925V3.73575L19.5461 3.7485C20.6944 3.7845 21.7159 4.77225 21.7376 5.96775C21.7661 10.4805 21.7661 14.994 21.7376 19.5075C21.7166 20.6663 20.7139 21.7043 19.5184 21.7267C14.5061 21.7575 9.49311 21.7575 4.48086 21.7267C3.32661 21.705 2.28411 20.7225 2.26161 19.5075C2.23311 14.994 2.23311 10.4805 2.26161 5.96775C2.28261 4.80075 3.28236 3.756 4.50636 3.74775H5.25786V2.99925C5.25549 2.91934 5.26822 2.8397 5.29536 2.7645C5.39436 2.46375 5.69061 2.25 6.02136 2.25C6.42186 2.26575 6.74736 2.565 6.75561 2.99925V5.9955C6.74286 6.65925 5.69886 7.03125 5.34111 6.33975C5.28723 6.23294 5.25874 6.11513 5.25786 5.9955V5.24325C5.00186 5.24125 4.74584 5.24225 4.48986 5.24625C4.10961 5.25825 3.77136 5.59125 3.75936 5.97675C3.67573 10.4834 3.67573 14.9911 3.75936 19.4977C3.77136 19.8787 4.10436 20.2163 4.48986 20.2283C9.49593 20.3213 14.5033 20.3213 19.5094 20.2283C19.8896 20.2163 20.2279 19.8832 20.2399 19.4977C20.3231 14.9917 20.3231 10.4827 20.2399 5.97675C20.2285 5.78311 20.1451 5.60073 20.006 5.46553C19.8669 5.33033 19.6822 5.2521 19.4884 5.24625H18.7414V5.9955C18.7286 6.65325 17.6816 7.0245 17.3269 6.33975C17.2733 6.23281 17.2449 6.11508 17.2436 5.9955V5.24625H12.7489ZM6.00636 17.232C6.1068 17.2288 6.20685 17.2459 6.30057 17.2821C6.3943 17.3183 6.47978 17.3731 6.55195 17.443C6.62412 17.5129 6.6815 17.5966 6.72069 17.6891C6.75988 17.7817 6.78007 17.8811 6.78007 17.9816C6.78007 18.0821 6.75988 18.1816 6.72069 18.2741C6.6815 18.3666 6.62412 18.4504 6.55195 18.5203C6.47978 18.5902 6.3943 18.6449 6.30057 18.6811C6.20685 18.7174 6.1068 18.7344 6.00636 18.7313C5.81165 18.7251 5.62698 18.6434 5.49142 18.5035C5.35587 18.3636 5.28007 18.1764 5.28007 17.9816C5.28007 17.7868 5.35587 17.5997 5.49142 17.4597C5.62698 17.3198 5.81165 17.2382 6.00636 17.232ZM9.00336 17.232C9.10458 17.2276 9.20564 17.2437 9.30045 17.2794C9.39527 17.3151 9.48186 17.3697 9.55502 17.4398C9.62817 17.5098 9.68636 17.594 9.72609 17.6872C9.76581 17.7804 9.78623 17.8807 9.78613 17.982C9.78603 18.0833 9.7654 18.1836 9.7255 18.2767C9.68559 18.3698 9.62723 18.4539 9.55393 18.5239C9.48064 18.5938 9.39393 18.6482 9.29905 18.6837C9.20416 18.7192 9.10307 18.7351 9.00186 18.7305C8.80895 18.7217 8.62688 18.6388 8.49356 18.4991C8.36024 18.3594 8.28594 18.1736 8.28613 17.9805C8.28633 17.7874 8.361 17.6018 8.4946 17.4624C8.6282 17.323 8.81044 17.2404 9.00336 17.232ZM11.9996 17.232C12.1925 17.2406 12.3747 17.3233 12.5081 17.4629C12.6416 17.6025 12.7161 17.7881 12.7161 17.9813C12.7161 18.1744 12.6416 18.36 12.5081 18.4996C12.3747 18.6392 12.1925 18.7219 11.9996 18.7305C11.8067 18.7219 11.6245 18.6392 11.4911 18.4996C11.3576 18.36 11.2831 18.1744 11.2831 17.9813C11.2831 17.7881 11.3576 17.6025 11.4911 17.4629C11.6245 17.3233 11.8067 17.2406 11.9996 17.232ZM6.00636 14.2358C6.1067 14.2326 6.20665 14.2496 6.30028 14.2858C6.39391 14.322 6.47931 14.3767 6.55141 14.4465C6.62351 14.5164 6.68084 14.6 6.71999 14.6924C6.75914 14.7849 6.77931 14.8842 6.77931 14.9846C6.77931 15.085 6.75914 15.1844 6.71999 15.2768C6.68084 15.3693 6.62351 15.4529 6.55141 15.5227C6.47931 15.5926 6.39391 15.6472 6.30028 15.6834C6.20665 15.7197 6.1067 15.7367 6.00636 15.7335C5.81185 15.7273 5.62736 15.6457 5.49195 15.506C5.35653 15.3662 5.28081 15.1792 5.28081 14.9846C5.28081 14.79 5.35653 14.603 5.49195 14.4633C5.62736 14.3235 5.81185 14.2419 6.00636 14.2358ZM9.00336 14.2358C9.20197 14.2358 9.39245 14.3146 9.53289 14.4551C9.67334 14.5955 9.75223 14.786 9.75223 14.9846C9.75223 15.1832 9.67334 15.3737 9.53289 15.5142C9.39245 15.6546 9.20197 15.7335 9.00336 15.7335C8.80475 15.7335 8.61427 15.6546 8.47382 15.5142C8.33338 15.3737 8.25448 15.1832 8.25448 14.9846C8.25448 14.786 8.33338 14.5955 8.47382 14.4551C8.61427 14.3146 8.80475 14.2358 9.00336 14.2358ZM11.9996 14.2358C12.1 14.2326 12.2001 14.2496 12.2938 14.2859C12.3875 14.3221 12.473 14.3768 12.5452 14.4467C12.6174 14.5166 12.6748 14.6004 12.7139 14.6929C12.7531 14.7854 12.7733 14.8849 12.7733 14.9854C12.7733 15.0859 12.7531 15.1853 12.7139 15.2779C12.6748 15.3704 12.6174 15.4541 12.5452 15.524C12.473 15.5939 12.3875 15.6487 12.2938 15.6849C12.2001 15.7211 12.1 15.7382 11.9996 15.735C11.8049 15.7288 11.6202 15.6472 11.4847 15.5073C11.3491 15.3673 11.2733 15.1802 11.2733 14.9854C11.2733 14.7906 11.3491 14.6034 11.4847 14.4635C11.6202 14.3236 11.8049 14.2419 11.9996 14.2358ZM14.9959 14.2358C15.0963 14.2326 15.1963 14.2496 15.2901 14.2859C15.3838 14.3221 15.4693 14.3768 15.5415 14.4467C15.6136 14.5166 15.671 14.6004 15.7102 14.6929C15.7494 14.7854 15.7696 14.8849 15.7696 14.9854C15.7696 15.0859 15.7494 15.1853 15.7102 15.2779C15.671 15.3704 15.6136 15.4541 15.5415 15.524C15.4693 15.5939 15.3838 15.6487 15.2901 15.6849C15.1963 15.7211 15.0963 15.7382 14.9959 15.735C14.8012 15.7288 14.6165 15.6472 14.4809 15.5073C14.3454 15.3673 14.2696 15.1802 14.2696 14.9854C14.2696 14.7906 14.3454 14.6034 14.4809 14.4635C14.6165 14.3236 14.8012 14.2419 14.9959 14.2358ZM17.9921 14.2358C18.0924 14.2326 18.1924 14.2496 18.286 14.2858C18.3797 14.322 18.4651 14.3767 18.5372 14.4465C18.6093 14.5164 18.6666 14.6 18.7057 14.6924C18.7449 14.7849 18.7651 14.8842 18.7651 14.9846C18.7651 15.085 18.7449 15.1844 18.7057 15.2768C18.6666 15.3693 18.6093 15.4529 18.5372 15.5227C18.4651 15.5926 18.3797 15.6472 18.286 15.6834C18.1924 15.7197 18.0924 15.7367 17.9921 15.7335C17.7976 15.7273 17.6131 15.6457 17.4777 15.506C17.3423 15.3662 17.2666 15.1792 17.2666 14.9846C17.2666 14.79 17.3423 14.603 17.4777 14.4633C17.6131 14.3235 17.7976 14.2419 17.9921 14.2358ZM9.00336 11.2395C9.10165 11.2395 9.19899 11.2589 9.2898 11.2965C9.38061 11.3341 9.46312 11.3892 9.53263 11.4587C9.60213 11.5282 9.65727 11.6107 9.69488 11.7016C9.7325 11.7924 9.75186 11.8897 9.75186 11.988C9.75186 12.0863 9.7325 12.1836 9.69488 12.2744C9.65727 12.3652 9.60213 12.4478 9.53263 12.5173C9.46312 12.5868 9.38061 12.6419 9.2898 12.6795C9.19899 12.7171 9.10165 12.7365 9.00336 12.7365C8.80484 12.7365 8.61446 12.6576 8.47409 12.5173C8.33372 12.3769 8.25486 12.1865 8.25486 11.988C8.25486 11.7895 8.33372 11.5991 8.47409 11.4587C8.61446 11.3184 8.80484 11.2395 9.00336 11.2395ZM11.9996 11.2395C12.1008 11.235 12.2019 11.251 12.2968 11.2866C12.3916 11.3222 12.4783 11.3767 12.5515 11.4467C12.6247 11.5167 12.683 11.6008 12.7228 11.694C12.7626 11.7872 12.7831 11.8874 12.7831 11.9887C12.7831 12.0901 12.7626 12.1903 12.7228 12.2835C12.683 12.3767 12.6247 12.4608 12.5515 12.5308C12.4783 12.6008 12.3916 12.6553 12.2968 12.6909C12.2019 12.7265 12.1008 12.7425 11.9996 12.738C11.8067 12.7294 11.6245 12.6467 11.4911 12.5071C11.3576 12.3675 11.2831 12.1819 11.2831 11.9887C11.2831 11.7956 11.3576 11.61 11.4911 11.4704C11.6245 11.3308 11.8067 11.2481 11.9996 11.2395ZM14.9959 11.2395C15.0971 11.235 15.1982 11.251 15.293 11.2866C15.3879 11.3222 15.4745 11.3767 15.5477 11.4467C15.621 11.5167 15.6792 11.6008 15.719 11.694C15.7589 11.7872 15.7794 11.8874 15.7794 11.9887C15.7794 12.0901 15.7589 12.1903 15.719 12.2835C15.6792 12.3767 15.621 12.4608 15.5477 12.5308C15.4745 12.6008 15.3879 12.6553 15.293 12.6909C15.1982 12.7265 15.0971 12.7425 14.9959 12.738C14.8029 12.7294 14.6208 12.6467 14.4873 12.5071C14.3539 12.3675 14.2794 12.1819 14.2794 11.9887C14.2794 11.7956 14.3539 11.61 14.4873 11.4704C14.6208 11.3308 14.8029 11.2481 14.9959 11.2395ZM17.9921 11.2395C18.1907 11.2394 18.3812 11.3182 18.5218 11.4586C18.6623 11.5989 18.7413 11.7894 18.7414 11.988C18.7415 12.1866 18.6627 12.3771 18.5223 12.5176C18.3819 12.6582 18.1915 12.7372 17.9929 12.7372C17.8945 12.7373 17.7971 12.718 17.7062 12.6804C17.6154 12.6428 17.5328 12.5877 17.4632 12.5182C17.3936 12.4487 17.3384 12.3661 17.3008 12.2753C17.2631 12.1845 17.2437 12.0871 17.2436 11.9887C17.2436 11.8904 17.2629 11.793 17.3005 11.7021C17.3381 11.6113 17.3932 11.5287 17.4627 11.4591C17.5322 11.3895 17.6147 11.3343 17.7056 11.2966C17.7964 11.259 17.8938 11.2395 17.9921 11.2395Z" fill="white"/>
</g>
<defs>
<clipPath id="clip0_128_1595">
<rect width="24" height="24" fill="white"/>
</clipPath>
</defs>
</svg>
