<svg width="24" height="24" viewBox="0 0 24 24" fill="none" xmlns="http://www.w3.org/2000/svg">
<g clip-path="url(#clip0_69_7606)">
<path d="M18.8996 6.90391C18.8996 5.07391 18.1726 3.31887 16.8786 2.02487C15.5846 0.730868 13.8296 0.00390625 11.9996 0.00390625C10.1696 0.00390625 8.41457 0.730868 7.12057 2.02487C5.82657 3.31887 5.09961 5.07391 5.09961 6.90391C5.09961 10.7139 11.9996 20.3477 11.9996 20.3477C11.9996 20.3477 18.8996 10.7139 18.8996 6.90391ZM7.49961 6.90391C7.49961 6.01389 7.76353 5.14386 8.258 4.40384C8.75246 3.66382 9.45527 3.08704 10.2775 2.74645C11.0998 2.40585 12.0046 2.31674 12.8775 2.49037C13.7504 2.66401 14.5523 3.09259 15.1816 3.72193C15.8109 4.35126 16.2395 5.15309 16.4131 6.026C16.5868 6.89891 16.4977 7.80371 16.1571 8.62598C15.8165 9.44825 15.2397 10.1511 14.4997 10.6455C13.7597 11.14 12.8896 11.4039 11.9996 11.4039C10.8061 11.4039 9.66154 10.9298 8.81763 10.0859C7.97372 9.24197 7.49961 8.09738 7.49961 6.90391Z" fill="white"/>
<path d="M15.473 16.1248C14.9555 16.9686 14.453 17.7486 14.0105 18.4161C15.8855 18.6711 17.198 19.2711 17.198 19.9761C17.198 20.9061 14.873 21.6636 12.0005 21.6636C9.12805 21.6636 6.80305 20.9136 6.80305 19.9761C6.80305 19.2673 8.12305 18.6673 9.9943 18.4161C9.5518 17.7486 9.0493 16.9648 8.5318 16.1211C3.9943 16.6348 0.716797 18.1573 0.716797 19.9611C0.716797 22.1923 5.76805 23.9998 12.0005 23.9998C18.233 23.9998 23.2843 22.1923 23.2843 19.9611C23.2843 18.1573 20.0068 16.6348 15.473 16.1248Z" fill="white"/>
</g>
<defs>
<clipPath id="clip0_69_7606">
<rect width="24" height="24" fill="white"/>
</clipPath>
</defs>
</svg>
